<?xml version="1.0" encoding="UTF-8"?>
<!DOCTYPE svg PUBLIC "-//W3C//DTD SVG 1.1//EN" "http://www.w3.org/Graphics/SVG/1.1/DTD/svg11.dtd">
<!-- Creator: CorelDRAW 2018 (64-Bit) -->
<svg xmlns="http://www.w3.org/2000/svg" xml:space="preserve" width="2700px" height="1017px" version="1.1" style="shape-rendering:geometricPrecision; text-rendering:geometricPrecision; image-rendering:optimizeQuality; fill-rule:evenodd; clip-rule:evenodd"
viewBox="0 0 1465.85 551.95"
 xmlns:xlink="http://www.w3.org/1999/xlink">
 <defs>
  <style type="text/css">
   <![CDATA[
    .fil0, .fil1, .fil2{fill: #ff8006}
   ]]>
  </style>
 </defs>
 <g id="Слой_x0020_1">
  <metadata id="CorelCorpID_0Corel-Layer"/>
  <path class="fil0" d="M301.74 430.08l103.77 75.94 68.94 -17.26 5.11 -52.18c-63.65,-26.49 -135.46,-26.53 -177.82,-6.5z"/>
  <path class="fil0" d="M70.12 257.88l38.77 29.85c71.87,-53.11 72.28,-113.84 78.1,-152.36l-73.02 27.52 -43.85 94.99z"/>
  <path class="fil0" d="M411.52 50.83c41.22,31.77 73.77,72.61 106.5,112.04l9.05 -79.17 -55.92 -57.23 -59.63 24.36z"/>
  <polygon class="fil0" points="63.9,254.57 105.32,165.24 91.17,170.7 56.05,248.59 "/>
  <polygon class="fil0" points="51.07,244.79 84.33,173.34 71.77,178.18 43.76,239.21 "/>
  <polygon class="fil0" points="476.59,24.25 527.75,75.26 529.1,63.13 486.35,20.36 "/>
  <polygon class="fil0" points="491.01,18.38 529.81,56.68 531.34,42.99 502.17,13.83 "/>
  <polygon class="fil0" points="29.5,228.34 38.49,235.2 63.34,180.97 50,186.57 "/>
  <polygon class="fil0" points="411.02,510.06 420.85,517.26 472.84,503.83 474.36,493.43 "/>
  <polygon class="fil0" points="426.56,521.25 437.65,529.55 471.32,520.66 472.78,508.97 "/>
  <polygon class="fil0" points="17.22,218.98 25.19,225.06 43.25,189.18 29.22,194.59 "/>
  <polygon class="fil0" points="509,11.29 532.3,34.32 533.59,22.75 518.4,7.22 "/>
  <polygon class="fil0" points="442.89,533.39 453.42,541.09 469.81,536.05 470.77,526.22 "/>
  <polygon class="fil0" points="0,205.85 12.32,215.67 21.07,197.73 "/>
  <polygon class="fil0" points="523.42,5.17 533.76,15.86 536.11,0 "/>
  <polygon class="fil0" points="459.29,545.44 468.25,551.95 469.13,543.03 "/>
  <path class="fil1" d="M319.34 100.66c19.59,3.93 32.16,12.81 49.8,26.81 47.67,37.84 98.17,106.84 115.86,154.38 11.47,30.83 6.54,47.68 -3.39,57.5 -14.49,14.32 -32.33,9.26 -56.15,1.03 -10.09,-3.49 -20.78,-8.46 -33.53,-11.29 -17.25,-3.83 -59.21,0.26 -84.71,13.12 -21.51,10.85 -43.33,19.99 -62.84,25.22 -34.83,9.33 -68.49,-0.88 -55.88,-40.18 5.37,-16.73 14.91,-31.68 23.8,-46.1 28.69,-46.48 63.93,-84.98 55.97,-150.77 -1.9,-15.69 16.6,-36.65 51.07,-29.72zm-108.2 103.69c-15.8,31.29 -16.73,34.77 -36.53,65.27l-19.46 30.3c-16.08,24.43 -51.09,78.95 -51.09,102.73 0,31.46 33.57,39.9 74.82,28.86 69.04,-18.48 137.06,-51.52 174.14,-56.71 83.83,-11.74 196.67,91.62 196.67,-21.92 0,-59.23 -67.16,-159.56 -105.66,-204.24 -23.56,-27.35 -43.54,-50.29 -71.32,-73.46 -33.56,-28 -84.8,-63.25 -126.75,-26.02 -32.43,28.78 -0.65,87.5 -34.82,155.19z"/>
  <path class="fil1" d="M287.28 303.12c-5.33,0 -11.66,2.11 -13.57,-6.79 -1.91,-8.89 5.99,-22.63 13.57,-33.93 8.63,-13.1 20.26,-28.94 23.35,-48.8 1.67,-10.79 -2.45,-25.17 6.23,-33.03 15.78,-14.29 47.04,4.54 85.74,61.53 15.06,26.19 26.48,60.98 -17.38,44.52 -42.45,-15.93 -83.43,16.5 -97.94,16.5zm-57.85 59.94c41.59,-2.59 112.94,-62.91 185.22,-31.75 55.77,24.03 77.09,3.01 69.43,-32.72 -10.95,-51.08 -106.84,-183.8 -164.55,-192.94 -30.25,-4.79 -47.42,11.1 -45.64,27.53 9.58,88.1 -64.69,147.58 -80.65,199.53 -4.06,13.22 3.63,32.38 36.19,30.35z"/>
  <path class="fil2 str0" d="M883.97 185.03l8.24 0 -21.43 23.95 23.19 25.69 -8.78 0 -22.65 -25.14 0 25.14 -7.52 0 0 -49.64 7.52 0 0 24.14 21.43 -24.14zm85.93 24.77c0,8.11 -2.04,14.44 -6.11,18.98 -4.08,4.55 -9.71,6.81 -16.9,6.81 -4.44,0 -8.38,-1.03 -11.83,-3.12 -3.43,-2.08 -6.08,-5.09 -7.96,-8.98 -1.88,-3.9 -2.82,-8.46 -2.82,-13.69 0,-8.1 2.03,-14.4 6.08,-18.92 4.04,-4.51 9.66,-6.78 16.84,-6.78 6.96,0 12.46,2.31 16.56,6.93 4.1,4.62 6.14,10.89 6.14,18.77zm-37.82 0c0,6.34 1.26,11.18 3.8,14.51 2.53,3.32 6.26,4.98 11.2,4.98 4.91,0 8.66,-1.66 11.21,-4.97 2.55,-3.31 3.81,-8.15 3.81,-14.52 0,-6.31 -1.26,-11.1 -3.81,-14.38 -2.55,-3.28 -6.33,-4.92 -11.31,-4.92 -4.93,0 -8.64,1.61 -11.15,4.85 -2.5,3.23 -3.75,8.05 -3.75,14.45zm102.34 17.61l1.41 -4.2 1.95 -5.35 13.45 -32.74 9.56 0 0 49.55 -6.65 0 0 -41 -0.91 2.63 -2.63 6.93 -12.82 31.44 -6.31 0 -12.82 -31.52c-1.64,-4.03 -2.7,-7.2 -3.31,-9.48l0 41 -6.69 0 0 -49.55 9.18 0 13.02 31.47c1.37,3.3 2.49,6.94 3.57,10.82zm74.42 7.26l-7.52 0 0 -49.64 41.66 0 0 49.64 -7.61 0 0 -43.14 -26.53 0 0 43.14zm104.96 0l-1.5 -7.07 -0.37 0c-2.48,3.11 -4.93,5.24 -7.4,6.34 -2.46,1.11 -5.53,1.65 -9.21,1.65 -4.93,0 -8.79,-1.26 -11.58,-3.8 -2.8,-2.54 -4.2,-6.15 -4.2,-10.85 0,-10.04 8.03,-15.25 24.05,-15.78l8.43 -0.27 0 -3.08c0,-3.88 -0.83,-6.76 -2.51,-8.61 -1.68,-1.87 -4.36,-2.79 -8.04,-2.79 -4.14,0 -8.81,1.27 -14.04,3.81l-2.3 -5.76c2.44,-1.33 5.12,-2.38 8.02,-3.14 2.93,-0.76 5.85,-1.12 8.77,-1.12 5.92,0 10.3,1.31 13.16,3.94 2.86,2.63 4.28,6.83 4.28,12.63l0 33.9 -5.56 0zm-17 -5.29c4.69,0 8.36,-1.29 11.03,-3.85 2.67,-2.57 4.02,-6.16 4.02,-10.78l0 -4.48 -7.53 0.32c-5.97,0.26 -10.28,1.14 -12.93,2.79 -2.64,1.64 -3.96,4.2 -3.96,7.66 0,2.73 0.83,4.79 2.47,6.2 1.65,1.42 3.95,2.14 6.9,2.14zm70.76 -44.35l0 20.78 27.83 0 0 -20.78 7.51 0 0 49.64 -7.51 0 0 -22.36 -27.83 0 0 22.36 -7.52 0 0 -49.64 7.52 0zm82.68 0l0 31.47 -0.33 8.25 -0.12 2.59 26.87 -42.31 9.37 0 0 49.64 -7.02 0 0 -30.34 0.14 -5.98 0.23 -5.9 -26.84 42.22 -9.37 0 0 -49.64 7.07 0zm78.83 49.64l-8.8 0 14.27 -20.99c-3.83,-0.85 -6.78,-2.48 -8.81,-4.91 -2.03,-2.43 -3.05,-5.48 -3.05,-9.17 0,-4.52 1.51,-8.08 4.56,-10.67 3.06,-2.6 7.32,-3.9 12.78,-3.9l22.11 0 0 49.64 -7.53 0 0 -19.86 -12.54 0 -12.99 19.86zm0.94 -34.98c0,5.75 4.18,8.63 12.5,8.63l12.09 0 0 -16.79 -13.63 0c-7.31,0 -10.96,2.72 -10.96,8.16z"/>
  <path class="fil2" d="M678.7 192.45l91.15 184.28 -8.51 0 -34.51 -68.62 -97.47 0 -34.03 68.62 -7.53 0 90.9 -184.28zm-0.73 16.56l-45.45 92.14 91.39 0 -45.94 -92.14zm111.08 167.72l-7.05 0 53.72 -111.09 53.96 111.09 -8.51 0 -46.18 -94.78 -45.94 94.78zm122.4 -107.69l7.78 0 0 37.19 40.18 0.57c9.72,0.14 18.07,3.52 25.04,10.56 6.97,7.03 10.45,15.36 10.45,24.95 0,9.6 -3.56,17.88 -10.69,24.84 -7.13,6.95 -15.64,10.55 -25.53,10.43l-47.23 -0.56 0 -107.98zm7.78 43.67l0 57.83 39.7 0.57c7.61,0.1 14.26,-2.84 19.93,-8.52 5.67,-5.68 8.5,-12.4 8.5,-20.16 0,-7.76 -2.87,-14.55 -8.63,-20.39 -5.74,-5.84 -12.35,-8.65 -19.8,-8.76l-39.7 -0.57zm165.51 -43.71l0 6.72 -41.81 0 0 101.01 -7.77 0 0 -101.01 -41.81 0 0 -6.72 91.39 0zm62.7 111.89l-2.67 0c-15.33,0 -28.68,-5.72 -39.74,-17.04 -11.06,-11.32 -16.65,-24.67 -16.65,-39.95 0,-15.27 5.71,-28.51 17.02,-39.59 11.3,-11.08 25.35,-16.67 42.04,-16.67 16.69,0 31.04,6.55 43.03,19.67l-76.32 74.38c10.53,8.32 20.66,12.48 30.38,12.48 9.72,0 18.46,-2.23 26.13,-6.6 7.66,-4.37 14.05,-10.28 19.08,-17.63l0 12.23c-11.51,12.48 -25.67,18.72 -42.3,18.72zm-2.06 -106.54c-12.88,0 -24.31,4.92 -34.27,14.76 -9.97,9.84 -14.95,21.16 -14.95,33.95 0,12.8 4.29,24 12.88,33.59l70.73 -69.34c-10.04,-8.64 -21.51,-12.96 -34.39,-12.96zm70.61 151.65l0 -155.97 7.78 0 0 26.4c4.37,-8.8 11.25,-15.87 20.53,-21.12 9.29,-5.24 19,-7.92 29.05,-7.92 16.04,0 29.69,5.56 40.96,16.68 11.25,11.11 16.89,24.44 16.89,39.95 0,15.52 -5.67,28.87 -16.89,39.95 -11.24,11.09 -24.92,16.68 -40.96,16.68 -9.73,0 -19.24,-2.64 -28.44,-7.8 -9.2,-5.16 -16.29,-12.2 -21.14,-20.99l0 74.14 -7.78 0zm7.29 -101.74c0,13.44 4.98,25.07 14.94,34.91 9.97,9.84 21.8,14.76 35.49,14.76 13.7,0 25.4,-4.92 35.12,-14.76 9.72,-9.84 14.59,-21.51 14.59,-35.03 0,-13.52 -4.94,-25.27 -14.71,-35.15 -9.76,-9.88 -21.5,-14.88 -35.12,-14.88 -13.61,0 -25.43,5.04 -35.37,15 -9.92,9.96 -14.94,21.72 -14.94,35.15zm242.57 -54.23l0 107.98 -7.78 0 0 -26.87c-4.54,9.11 -11.38,16.35 -20.41,21.59 -9.05,5.25 -18.8,7.92 -29.17,7.92 -15.88,0 -29.53,-5.59 -40.83,-16.68 -11.31,-11.08 -17.02,-24.43 -17.02,-39.95 0,-15.51 5.71,-28.87 17.02,-39.95 11.3,-11.08 24.95,-16.68 40.83,-16.68 10.37,0 20.32,2.76 29.77,8.16 9.44,5.41 16.08,12.64 19.81,21.6l0 -27.12 7.78 0zm-107.43 54.23c0,13.44 4.98,25.07 14.94,34.91 9.96,9.84 21.8,14.76 35.49,14.76 13.7,0 25.44,-4.95 35.12,-14.76 9.69,-9.8 14.59,-21.51 14.59,-35.03 0,-13.52 -4.94,-25.27 -14.71,-35.15 -9.76,-9.88 -21.51,-14.88 -35.12,-14.88 -13.61,0 -25.43,5.04 -35.37,15 -9.92,9.96 -14.94,21.72 -14.94,35.15z"/>
 </g>
</svg>
