<svg width="108" height="108" viewBox="0 0 108 108" fill="none" xmlns="http://www.w3.org/2000/svg">
<path d="M105.891 72.1406H97.4531C96.2881 72.1406 95.3438 73.085 95.3438 74.25V76.4699C94.1507 75.9326 92.7288 75.5156 91.1824 75.5156C87.4496 75.5156 85.4605 77.1588 84.144 78.246C83.9658 78.3932 83.159 79.0379 82.937 79.2222C81.8284 80.1438 80.8709 80.9397 78.7293 80.9397C76.5876 80.9397 75.6302 80.1438 74.5215 79.2222C74.2996 79.0376 73.3579 78.2871 73.113 78.0851C71.6534 76.8808 69.9986 75.5156 66.3647 75.5156C62.7271 75.5156 60.9911 76.9489 59.5962 78.1009C59.3572 78.2983 58.4297 79.0379 58.2078 79.2222C57.0991 80.1438 56.1416 80.9397 54 80.9397C51.7533 80.9397 50.6539 80.0518 49.4899 79.1119C49.2965 78.9558 48.507 78.33 48.2844 78.1456C46.869 76.9738 45.1075 75.5156 41.4587 75.5156C37.7751 75.5156 35.7145 77.2358 34.483 78.2635C34.3043 78.4126 33.5239 79.0376 33.302 79.2222C32.1933 80.1438 31.2358 80.9397 29.0942 80.9397C26.9525 80.9397 25.9951 80.1438 24.8864 79.2222C24.6645 79.0376 23.7796 78.3312 23.5575 78.1473C22.2157 77.0367 20.3785 75.5156 16.7292 75.5156C15.2181 75.5156 13.8274 75.9227 12.6562 76.4511V74.25C12.6562 73.085 11.7119 72.1406 10.5469 72.1406H2.10938C0.944367 72.1406 0 73.085 0 74.25V105.891C0 107.056 0.944367 108 2.10938 108H105.891C107.056 108 108 107.056 108 105.891V74.25C108 73.085 107.056 72.1406 105.891 72.1406ZM4.21875 76.3594H8.4375V103.781H4.21875V76.3594ZM12.6562 81.3208C13.4886 80.696 15.0436 79.7344 16.7292 79.7344C18.8587 79.7344 19.7009 80.4317 20.8668 81.397C21.1085 81.5972 21.9896 82.3004 22.1894 82.4664C23.479 83.5384 25.4279 85.1584 29.094 85.1584C32.7601 85.1584 34.7091 83.5384 35.9986 82.4664C36.1984 82.3004 36.983 81.672 37.1864 81.5022C38.2278 80.633 39.3046 79.7344 41.4587 79.7344C43.5879 79.7344 44.4296 80.4311 45.5941 81.3953C45.8365 81.5959 46.6739 82.2606 46.8395 82.3943C48.2026 83.495 50.2628 85.1584 54 85.1584C57.6661 85.1584 59.6149 83.5384 60.9046 82.4664C61.1044 82.3004 62.0253 81.5659 62.2823 81.354C63.5053 80.344 64.2435 79.7344 66.3647 79.7344C68.483 79.7344 69.2153 80.3385 70.4287 81.3394C70.6908 81.5556 71.6251 82.3004 71.8249 82.4664C73.1145 83.5384 75.0634 85.1584 78.7295 85.1584C82.3956 85.1584 84.3444 83.5384 85.6339 82.4664C85.8336 82.3004 86.6255 81.6683 86.8307 81.4987C87.9291 80.5914 88.9665 79.7344 91.1824 79.7344C92.9053 79.7344 94.4945 80.703 95.3438 81.3305V103.781H12.6562V81.3208ZM103.781 103.781H99.5625V76.3594H103.781V103.781Z" fill="white"/>
<path d="M54.5631 22.6758C55.7281 22.6758 56.6725 21.7314 56.6725 20.5664C56.6725 19.4014 55.7281 18.457 54.5631 18.457C53.3981 18.457 52.4537 19.4014 52.4537 20.5664C52.4537 21.7314 53.3981 22.6758 54.5631 22.6758Z" fill="white"/>
<path d="M8.7518 54.8438C10.298 54.8438 11.823 54.4324 13.1604 53.652L42.757 36.3867H65.4351C65.8022 39.5293 68.4794 41.9766 71.7188 41.9766C75.2081 41.9766 78.0469 39.1378 78.0469 35.6484V18.7734C78.0469 15.2841 75.2081 12.4453 71.7188 12.4453C68.3355 12.4453 65.564 15.1141 65.3986 18.457H64.0554C62.8931 18.457 61.946 19.4041 61.946 20.5664C61.946 21.7287 62.8931 22.6758 64.0554 22.6758H65.3906V32.168H43.8164C42.1594 27.3607 37.7523 26.0698 34.1385 25.0134C32.9358 24.6618 31.7997 24.3297 30.7737 23.8967C29.2437 23.2508 27.4898 21.7242 25.6327 20.108C22.391 17.2868 18.3564 13.7757 12.9644 12.6974C8.98615 11.9017 6.16254 12.0734 4.21875 12.5447V10.3064C4.22508 6.95461 6.95461 4.22508 10.3064 4.21875C11.4476 4.21875 12.5634 4.53937 13.5316 5.14477L41.0695 22.3552C41.4007 22.5619 41.7973 22.6758 42.1875 22.6758H45.071C46.2354 22.6758 47.1804 21.7287 47.1804 20.5664C47.1804 19.4041 46.2354 18.457 45.071 18.457H42.7929L15.7676 1.56727C14.1286 0.542109 12.2386 0 10.3064 0C8.91422 0 7.56422 0.272109 6.29437 0.81C5.06672 1.32891 3.96563 2.07141 3.01852 3.01852C2.07141 3.96563 1.32891 5.06672 0.81 6.29437C0.272109 7.56422 0 8.91422 0 10.3064V46.092C0 48.4312 0.91125 50.6271 2.56289 52.2809C4.21664 53.9325 6.4125 54.8438 8.7518 54.8438ZM69.6094 18.7734C69.6094 17.6103 70.5556 16.6641 71.7188 16.6641C72.8819 16.6641 73.8281 17.6103 73.8281 18.7734V35.6484C73.8281 36.8115 72.8819 37.7578 71.7188 37.7578C70.5556 37.7578 69.6094 36.8115 69.6094 35.6484V18.7734ZM12.1371 16.8341C16.4312 17.693 19.8484 20.6666 22.8631 23.2905C24.9813 25.134 26.9821 26.8751 29.1328 27.7832C30.3826 28.311 31.6904 28.6932 32.955 29.0628C36.5025 30.0997 38.7564 30.877 39.7263 33.2705L11.0341 50.007C10.3423 50.412 9.55336 50.625 8.7518 50.625C6.25641 50.6208 4.22297 48.5873 4.21875 46.092V16.9864C5.26627 16.5388 7.66758 15.9401 12.1371 16.8341Z" fill="white"/>
<path d="M75.9375 48.5156C75.3384 48.5156 74.7676 48.7704 74.3675 49.2161C73.2208 50.4942 67.5 57.0767 67.5 61.1719C67.5 65.8243 71.2851 69.6094 75.9375 69.6094C80.5899 69.6094 84.375 65.8243 84.375 61.1719C84.375 57.0767 78.6542 50.4942 77.5075 49.2161C77.1074 48.7704 76.5366 48.5156 75.9375 48.5156ZM75.9375 65.3906C73.6113 65.3906 71.7188 63.4981 71.7188 61.1719C71.7188 59.8276 73.7007 56.688 75.9367 53.8922C78.1783 56.703 80.1562 59.8653 80.1562 61.1719C80.1562 63.4981 78.2637 65.3906 75.9375 65.3906Z" fill="white"/>
</svg>
