<svg width="120" height="120" viewBox="0 0 120 120" fill="none" xmlns="http://www.w3.org/2000/svg">
<path d="M94.2188 48.6328C95.5132 48.6328 96.5625 47.5835 96.5625 46.2891C96.5625 44.9946 95.5132 43.9453 94.2188 43.9453C92.9243 43.9453 91.875 44.9946 91.875 46.2891C91.875 47.5835 92.9243 48.6328 94.2188 48.6328Z" fill="#0095D9"/>
<path d="M104.766 43.9453C103.474 43.9453 102.422 44.9977 102.422 46.2891C102.422 47.5805 103.474 48.6328 104.766 48.6328H117.656C118.273 48.6328 118.877 48.382 119.313 47.9461C119.749 47.5102 120 46.9055 120 46.2891V36.6797C120 36.0633 119.749 35.4586 119.313 35.0227C118.877 34.5867 118.273 34.3359 117.656 34.3359H59.7656V27.1875C59.7656 23.3105 56.6114 20.1562 52.7344 20.1562H25.8984C16.7873 20.1562 9.375 27.5686 9.375 36.6797V46.0022L5.19844 62.8125H2.34375C1.0493 62.8125 0 63.8618 0 65.1562V97.5C0 98.7945 1.0493 99.8438 2.34375 99.8438H117.656C118.951 99.8438 120 98.7945 120 97.5V74.5312C120 73.2368 118.951 72.1875 117.656 72.1875C113.31 72.1875 111.321 73.8574 109.567 75.3307C109.275 75.5761 105.318 78.8838 102.651 78.8838C99.8585 78.8838 95.8636 75.6157 95.5912 75.3865C93.8991 73.9612 91.7925 72.1875 87.4317 72.1875C83.0309 72.1875 80.5655 74.28 79.0924 75.5304C78.873 75.7165 75.0933 78.8841 72.4268 78.8841C69.7601 78.8841 65.8563 75.6178 65.5852 75.3895C64.2279 74.2462 62.6016 72.8815 59.7654 72.3834V65.1562C59.7654 63.8618 58.7161 62.8125 57.4216 62.8125H55.0779V58.2422H57.4216C58.7161 58.2422 59.7654 57.1929 59.7654 55.8984V48.6328H83.6716C84.963 48.6328 86.0154 47.5805 86.0154 46.2891C86.0154 44.9977 84.963 43.9453 83.6716 43.9453H14.0625V39.0234H115.312V43.9453H104.766ZM11.2223 58.0078H15.7673L14.5734 62.8125H10.0287L11.2223 58.0078ZM26.9531 48.6328V55.8984C26.9531 57.1929 28.0024 58.2422 29.2969 58.2422H31.6406V62.8125H19.4037L22.9266 48.6328H26.9531ZM4.6875 67.5H55.0781V95.1562H4.6875V67.5ZM64.1693 80.2943C65.7122 81.5993 68.0435 83.5713 72.4268 83.5713C76.8101 83.5713 81.8686 79.3223 82.1257 79.1039C83.4169 78.008 84.7519 76.8748 87.4317 76.8748C90.0818 76.8748 91.1262 77.7544 92.5718 78.9717C92.8648 79.2183 98.1797 83.5711 102.651 83.5711C107.034 83.5711 112.27 79.1813 112.581 78.9202C113.508 78.1418 114.236 77.5305 115.312 77.1858V95.1562H59.7656V77.1959C60.8829 77.5573 63.9258 80.0883 64.1693 80.2943ZM50.3906 62.8125H36.3281V58.2422H50.3906V62.8125ZM55.0781 48.6328V53.5547H31.6406V48.6328H55.0781ZM18.0963 48.6328L16.9317 53.3203H12.387L13.5516 48.6328H18.0963ZM25.8984 24.8438H29.0667L27.3408 34.3359H14.2955C15.3862 28.9284 20.1743 24.8438 25.8984 24.8438ZM32.1052 34.3359L33.8311 24.8438H38.4417L36.7158 34.3359H32.1052ZM41.4802 34.3359L43.2061 24.8438H52.7344C54.0267 24.8438 55.0781 25.8952 55.0781 27.1875V34.3359H41.4802Z" fill="#0095D9"/>
</svg>
