<svg width="124" height="124" viewBox="0 0 124 124" fill="none" xmlns="http://www.w3.org/2000/svg">
<g clip-path="url(#clip0)">
<path d="M121.578 80.6484C117.087 80.6484 115.032 82.374 113.219 83.8964C112.917 84.15 111.754 85.0938 111.478 85.3273C110.056 86.5295 108.829 87.568 106.073 87.568C103.187 87.568 101.781 86.4123 100.292 85.1887C100.052 84.9911 99.059 84.1907 98.7776 83.9538C97.0288 82.4811 94.852 80.6484 90.3464 80.6484C85.7983 80.6484 83.2507 82.8109 81.7286 84.103C81.5021 84.2953 80.5218 85.094 80.2457 85.3277C78.824 86.53 77.5966 87.5682 74.8413 87.5682C72.0857 87.5682 70.858 86.53 69.4366 85.3277C69.1605 85.0943 68.052 84.1933 67.7718 83.9574C66.3695 82.7761 64.689 81.3656 61.7581 80.8509V63.2109C61.7581 62.5338 61.4795 61.9223 61.0315 61.4829C61.0286 61.48 61.0271 61.4774 61.024 61.4745C58.6893 59.1955 57.4009 56.1148 57.3984 52.7969C57.3984 49.5661 58.6578 46.5242 60.9441 44.2331C63.2352 41.9493 66.2746 40.6899 69.5078 40.6875C72.6829 40.6899 75.6739 41.9089 77.9507 44.1186C78.1224 44.361 78.5077 44.9231 79.0282 45.795C79.4816 46.5547 80.2852 46.9761 81.1103 46.9761C81.5324 46.9761 81.9601 46.8657 82.3488 46.6337C83.4975 45.9481 83.8729 44.4615 83.1875 43.3128C83.0863 43.143 82.9892 42.9834 82.8964 42.8328L84.5803 41.1489C85.0466 41.6175 85.6687 41.8611 86.2967 41.8611C86.8235 41.8611 87.3544 41.6899 87.7993 41.3373C88.8475 40.5063 89.024 38.9832 88.1931 37.9348C88.1328 37.8585 88.0739 37.7846 88.0165 37.7127L89.7062 36.023C89.7709 36.075 89.837 36.1283 89.9048 36.1833C90.3534 36.5463 90.8918 36.7229 91.4272 36.7229C92.1327 36.7229 92.8326 36.4158 93.311 35.8249C94.1526 34.7854 93.992 33.2603 92.9525 32.4187C91.9312 31.5921 91.2512 31.0773 91.0259 30.9087C82.9984 23.6251 72.6127 19.6172 61.7627 19.6172H61.7578C58.9097 19.6172 56.0616 19.8933 53.2909 20.4382C52.6564 20.5641 52.1091 20.9298 51.7482 21.4651C51.3873 22.0027 51.259 22.6494 51.3825 23.2839C51.6053 24.4149 52.6031 25.2384 53.7559 25.2384C53.9109 25.2384 54.861 25.0715 55.1805 25.0172C57.3415 24.6484 59.5505 24.4609 61.7578 24.4609C67.2923 24.4609 72.6211 25.5966 77.5271 27.79L69.4727 35.8447C67.1966 35.8493 64.9876 36.2964 62.9084 37.1758C60.891 38.0307 59.077 39.2537 57.5198 40.8086C55.9625 42.3659 54.7419 44.1798 53.887 46.1973C53.003 48.2873 52.5549 50.5082 52.5549 52.7969C52.5525 55.5893 53.2355 58.3527 54.5288 60.7891H23.0829C23.715 50.5034 28.3287 41.0605 36.0714 34.1969C36.5558 33.7658 36.844 33.1748 36.8827 32.5282C36.9239 31.884 36.7084 31.2616 36.2797 30.7772C35.8195 30.2589 35.1584 29.961 34.4657 29.961C33.8748 29.961 33.3032 30.1766 32.86 30.5713C30.6101 32.5645 28.5588 34.7975 26.7617 37.2097C24.955 39.6413 23.3953 42.2666 22.1335 45.013C20.8475 47.8102 19.857 50.7504 19.1934 53.7559C18.5104 56.8414 18.1641 60.0238 18.1641 63.2109V70.9609H2.42188C1.08427 70.9609 0 72.0452 0 73.3828V101.961C0 103.299 1.08427 104.383 2.42188 104.383H121.578C122.915 104.383 124 103.299 124 101.961V83.0703C124 81.7327 122.915 80.6484 121.578 80.6484ZM85.9424 32.9351L79.6603 39.2174C78.3273 38.2206 76.8611 37.4306 75.3026 36.8646L82.0059 30.1611C83.3622 30.9976 84.6765 31.9223 85.9424 32.9351ZM23.0078 65.6328H56.9141V70.9609H23.0078V65.6328ZM4.84375 75.8047H56.9141V99.5391H4.84375V75.8047ZM119.156 99.5391H61.7578V85.8237C62.9123 86.1972 63.6973 86.8584 64.651 87.6619C64.9525 87.916 70.3116 92.412 74.841 92.412C79.3699 92.412 84.5975 88.0213 84.8632 87.7959C86.1974 86.6634 87.5769 85.4924 90.3464 85.4924C93.0845 85.4924 94.1637 86.4011 95.6575 87.659C95.9603 87.9141 101.453 92.412 106.073 92.412C110.602 92.412 116.013 87.876 116.334 87.606C117.292 86.8017 118.044 86.1701 119.156 85.8138V99.5391Z" fill="#0095D9"/>
<path d="M101.178 46.7151C101.655 47.2258 102.301 47.484 102.948 47.484C103.54 47.484 104.134 47.2682 104.601 46.8323C105.578 45.9192 105.631 44.3869 104.718 43.4092C104.16 42.8115 103.584 42.2084 103.008 41.6165C102.074 40.6587 100.541 40.6388 99.5827 41.5725C98.6248 42.5058 98.6049 44.0394 99.5383 44.9972C100.091 45.5644 100.643 46.1423 101.178 46.7151Z" fill="#0095D9"/>
<path d="M110.716 58.7172C111.181 59.4258 111.954 59.8106 112.743 59.8106C113.199 59.8106 113.66 59.6823 114.07 59.4134C115.188 58.6796 115.499 57.1783 114.766 56.0599C114.315 55.373 113.843 54.6775 113.362 53.9923C112.594 52.8974 111.084 52.6322 109.989 53.4002C108.894 54.1681 108.629 55.6787 109.397 56.7736C109.849 57.4181 110.292 58.072 110.716 58.7172Z" fill="#0095D9"/>
<path d="M117.365 72.223C117.694 73.2513 118.646 73.9069 119.671 73.9069C119.916 73.9069 120.164 73.8694 120.41 73.7909C121.684 73.3828 122.386 72.0195 121.978 70.7459C121.723 69.9493 121.44 69.1397 121.137 68.339C120.664 67.0881 119.266 66.4572 118.016 66.93C116.764 67.403 116.134 68.8006 116.607 70.0518C116.88 70.7749 117.135 71.5054 117.365 72.223Z" fill="#0095D9"/>
<path d="M104.627 73.3918C103.333 73.7284 102.556 75.0508 102.893 76.3453C103.09 77.1019 103.274 77.8645 103.44 78.6121C103.691 79.7412 104.692 80.5097 105.802 80.5097C105.976 80.5097 106.152 80.4908 106.329 80.4516C107.635 80.1619 108.459 78.8681 108.169 77.5625C107.99 76.7584 107.793 75.9384 107.581 75.1256C107.244 73.8316 105.922 73.0549 104.627 73.3918Z" fill="#0095D9"/>
<path d="M91.9981 47.2956C90.8683 48.0115 90.5324 49.5077 91.2483 50.6375C91.6677 51.2999 92.0891 51.9797 92.4999 52.6581C92.9552 53.4099 93.7544 53.8254 94.5735 53.8254C95.001 53.8254 95.4337 53.7123 95.8258 53.4748C96.9702 52.7819 97.3356 51.2926 96.6425 50.1486C96.215 49.4428 95.7769 48.7354 95.3398 48.0454C94.6246 46.9156 93.1284 46.5797 91.9981 47.2956Z" fill="#0095D9"/>
<path d="M99.0411 65.2649C99.4361 66.1804 100.328 66.728 101.266 66.728C101.586 66.728 101.912 66.664 102.224 66.5291C103.452 65.9992 104.019 64.5742 103.489 63.3461C103.162 62.59 102.822 61.8268 102.476 61.077C101.915 59.8625 100.476 59.3325 99.2618 59.893C98.0472 60.4534 97.5173 61.8925 98.0777 63.107C98.4069 63.8203 98.7309 64.5461 99.0411 65.2649Z" fill="#0095D9"/>
<path d="M87.3178 72.385C87.4617 73.6182 88.5082 74.5264 89.7203 74.5264C89.814 74.5264 89.9087 74.5211 90.0041 74.51C91.3325 74.355 92.2839 73.1525 92.1289 71.8239C92.0325 70.9975 91.9242 70.1678 91.8075 69.3574C91.6166 68.0336 90.3904 67.115 89.0647 67.3061C87.7409 67.4969 86.8225 68.7248 87.0134 70.0489C87.1241 70.8159 87.2265 71.602 87.3178 72.385Z" fill="#0095D9"/>
<path d="M89.1303 57.1865C88.8877 56.3837 88.6307 55.5818 88.3662 54.8027C87.9366 53.536 86.5602 52.8574 85.2946 53.2875C84.0279 53.7172 83.3496 55.0926 83.7792 56.3592C84.0262 57.087 84.2667 57.8373 84.4937 58.5885C84.8102 59.6353 85.7712 60.31 86.8109 60.31C87.0429 60.31 87.2793 60.2763 87.5125 60.2059C88.7935 59.8184 89.5174 58.4667 89.1303 57.1865Z" fill="#0095D9"/>
<path d="M43.4722 28.7331C44.8097 28.7331 45.894 27.6488 45.894 26.3112C45.894 24.9737 44.8097 23.8894 43.4722 23.8894C42.1346 23.8894 41.0503 24.9737 41.0503 26.3112C41.0503 27.6488 42.1346 28.7331 43.4722 28.7331Z" fill="#0095D9"/>
</g>
<defs>
<clipPath id="clip0">
<rect width="124" height="124" fill="white"/>
</clipPath>
</defs>
</svg>
