<svg width="94" height="94" viewBox="0 0 94 94" fill="none" xmlns="http://www.w3.org/2000/svg">
<g clip-path="url(#clip0)">
<path d="M93.4621 0.537889C93.1206 0.196405 92.6469 -4.07891e-05 92.1641 -4.07891e-05H73.8047C73.3218 -4.07891e-05 72.8482 0.196405 72.5067 0.537889C72.1652 0.879373 71.9688 1.35305 71.9688 1.8359V5.32418C69.9639 4.9166 65.4438 1.56969 64.614 1.10336C63.3141 0.370819 61.7334 -4.07891e-05 59.9195 -4.07891e-05C59.8975 -4.07891e-05 59.8736 -4.07891e-05 59.8516 -4.07891e-05C58.0101 -0.0110564 56.4 0.367147 55.0708 1.11805C54.2354 1.58805 50.6241 4.48148 50.1046 4.76972C49.4198 5.14793 48.5697 5.49859 47 5.50777C45.3972 5.50043 44.4701 5.12222 43.7724 4.7532C43.1629 4.42824 39.6452 1.63578 38.7989 1.1566C37.4311 0.379998 35.8026 -0.0110564 33.9648 -4.07891e-05H33.9245C32.1326 -4.07891e-05 30.427 0.435076 28.9931 1.25758C28.1119 1.76062 24.7374 4.48148 24.2179 4.76972C23.533 5.14793 22.683 5.49859 21.1133 5.50777C19.5436 5.49859 18.6935 5.14793 18.0087 4.76972C17.4891 4.48148 13.9458 1.63762 13.0994 1.15844C11.7445 0.389178 10.1362 -4.07891e-05 8.31863 -4.07891e-05C8.30027 -4.07891e-05 8.28008 -4.07891e-05 8.26172 -4.07891e-05C7.24094 0.00363109 6.20363 0.179881 5.17734 0.525037C4.37687 0.793084 3.59477 1.15476 2.78328 1.63394C1.57707 2.34812 0.787617 3.05679 0.574648 3.25691L0.567305 3.26426C0.205625 3.60758 0 4.09226 0 4.5898V92.1638C0 92.6467 0.196445 93.1204 0.53793 93.4618C0.879414 93.8033 1.35309 93.9998 1.83594 93.9998H92.1641C92.6469 93.9998 93.1206 93.8033 93.4621 93.4618C93.8036 93.1204 94 92.6467 94 92.1638V73.1729C94 72.1613 93.1757 71.337 92.1641 71.337C91.1525 71.337 90.3281 72.1613 90.3281 73.1729V90.3279H3.67188V18.3593H18.3594V43.1445C18.3594 44.1585 19.1813 44.9804 20.1953 44.9804H30.293V69.7656C30.293 70.7796 31.1149 71.6015 32.1289 71.6015H42.2266V83.4433C42.2266 84.4573 43.0485 85.2793 44.0625 85.2793H54.5273C55.5413 85.2793 56.3633 84.4573 56.3633 83.4433V51.4062H66.4609C67.4749 51.4062 68.2969 50.5843 68.2969 49.5703V24.7851H73.8047C74.8187 24.7851 75.6406 23.9632 75.6406 22.9492V3.67183H90.3281V56.6495C90.3281 57.6629 91.1525 58.4854 92.1641 58.4854C93.1757 58.4854 94 57.6629 94 56.6495V1.8359C94 1.35305 93.8036 0.879373 93.4621 0.537889ZM22.0312 30.2929H25.7031V33.9648H22.0312V30.2929ZM25.7031 26.6211H22.0312V22.9492H25.7031V26.6211ZM22.0312 37.6367H25.7031V41.3086H22.0312V37.6367ZM33.9648 56.9138H37.6367V60.5857H33.9648V56.9138ZM37.6367 53.2421H33.9648V49.5703H37.6367V53.2421ZM33.9648 64.2576H37.6367V67.9295H33.9648V64.2576ZM60.9531 36.7187H64.625V40.3906H60.9531V36.7187ZM64.625 33.0468H60.9531V29.375H64.625V33.0468ZM60.9531 47.7343V44.0625H64.625V47.7343H60.9531ZM66.4609 21.1132C65.447 21.1132 64.625 21.9352 64.625 22.9492V25.7031H60.9531V22.9492C60.9531 21.9352 60.1312 21.1132 59.1172 21.1132C58.1032 21.1132 57.2812 21.9352 57.2812 22.9492V47.7343H54.5273C53.5134 47.7343 52.6914 48.5563 52.6914 49.5703V81.6074H45.8984V69.7654C45.8984 68.7514 45.0765 67.9295 44.0625 67.9295H41.3086V43.1443C41.3086 42.1303 40.4866 41.3084 39.4727 41.3084C38.4587 41.3084 37.6367 42.1303 37.6367 43.1443V45.8982H33.9648V43.1443C33.9648 42.1303 33.1429 41.3084 32.1289 41.3084H29.375V16.5232C29.375 15.5092 28.5531 14.6873 27.5391 14.6873C26.5251 14.6873 25.7031 15.5092 25.7031 16.5232V19.2771H22.0312V16.5232C22.0312 15.5092 21.2093 14.6873 20.1953 14.6873H3.67188V5.45067C4.01887 5.18813 4.38055 4.94946 4.74773 4.73833C5.4307 4.33993 6.79297 3.67165 8.23785 3.67165H8.26172C9.84062 3.68083 10.6595 4.00946 11.3075 4.3638C11.7959 4.63185 15.3411 7.47938 16.2058 7.96958C17.6121 8.77188 19.2461 9.17946 21.0637 9.17946H21.1133H21.1629C22.9804 9.17946 24.6144 8.77188 26.0207 7.96958C26.8855 7.47938 30.2562 4.75853 30.8052 4.45192C31.4882 4.07005 32.4006 3.67899 33.9648 3.67165C35.4556 3.68083 36.2598 3.95438 37.0088 4.36196C37.4954 4.63001 41.0883 7.47571 42.032 7.9861C43.4879 8.77739 45.1439 9.17946 46.9596 9.17946H47H47.0496C48.8671 9.17946 50.5011 8.77188 51.9075 7.96958C52.7722 7.47755 56.3853 4.58044 56.8535 4.32708C57.5677 3.9397 58.3516 3.68083 59.8516 3.67165C61.3534 3.68083 62.13 3.93603 62.8331 4.31423C63.2939 4.56392 67.0374 7.40228 68.5098 8.05036C69.6338 8.54441 70.7915 8.87451 71.9688 9.04434V21.1131H66.4609V21.1132Z" fill="#0095D9"/>
<path d="M92.1641 66.7473C93.178 66.7473 94 65.9254 94 64.9114C94 63.8974 93.178 63.0755 92.1641 63.0755C91.1501 63.0755 90.3281 63.8974 90.3281 64.9114C90.3281 65.9254 91.1501 66.7473 92.1641 66.7473Z" fill="#0095D9"/>
</g>
<defs>
<clipPath id="clip0">
<rect width="94" height="94" fill="white"/>
</clipPath>
</defs>
</svg>
