<svg width="114" height="114" viewBox="0 0 114 114" fill="none" xmlns="http://www.w3.org/2000/svg">
<g clip-path="url(#clip0)">
<path d="M111.773 70.8982C113.003 70.8982 114 69.9013 114 68.6716C114 67.4419 113.003 66.4451 111.773 66.4451C110.544 66.4451 109.547 67.4419 109.547 68.6716C109.547 69.9013 110.544 70.8982 111.773 70.8982Z" fill="#0095D9"/>
<path d="M111.773 60.8787C113 60.8787 114 59.8789 114 58.6521V19.1484C114 18.5629 113.762 17.9884 113.348 17.5743C112.933 17.1601 112.359 16.9219 111.773 16.9219H102.867C102.282 16.9219 101.707 17.1601 101.293 17.5743C100.879 17.9884 100.641 18.5629 100.641 19.1484V26.8279C99.1822 26.171 97.6771 25.8348 96.2209 25.8281C93.8118 25.8281 92.035 26.5451 90.9907 27.1485C90.0466 27.6895 89.3252 28.2885 88.7975 28.7271C88.5971 28.8941 86.001 31.5548 83.1042 31.5548C80.0171 31.5548 77.4532 28.7716 77.1994 28.5601C76.6205 28.0792 75.9636 27.5337 75.0841 27.026C73.7081 26.2311 71.5423 25.8281 69.9742 25.8281C68.0616 25.8281 66.3894 26.2356 65 27.0416C64.1139 27.5515 63.4593 28.097 62.8804 28.5802C62.6332 28.785 60.4489 30.5596 59.9546 30.8379C59.2043 31.2609 58.4139 31.5437 57 31.5548C56.4857 31.5526 56.0448 31.5103 55.6641 31.4391V10.2422C55.6641 9.01313 54.6666 8.01562 53.4375 8.01562H20.0391C18.81 8.01562 17.8125 9.01313 17.8125 10.2422V25.8281C17.8125 25.8281 17.1316 25.8415 16.8671 25.8646C15.6984 25.9666 14.5214 26.2815 13.3594 26.8078V19.1484C13.3594 18.5629 13.1211 17.9884 12.707 17.5743C12.2929 17.1601 11.7184 16.9219 11.1328 16.9219H2.22656C1.64098 16.9219 1.06652 17.1601 0.652383 17.5743C0.238242 17.9884 0 18.5629 0 19.1484V103.758C0 104.343 0.238242 104.918 0.652383 105.332C1.06652 105.746 1.64098 105.984 2.22656 105.984H111.773C112.359 105.984 112.933 105.746 113.348 105.332C113.762 104.918 114 104.343 114 103.758V78.6912C114 77.4621 113 76.4646 111.773 76.4646C110.547 76.4646 109.547 77.4621 109.547 78.6912V101.531H4.45312V21.375H8.90625V94.8516C8.90625 96.0811 9.90308 97.0781 11.1328 97.0781H102.867C104.097 97.0781 105.094 96.0811 105.094 94.8516V21.375H109.547V58.6521C109.547 59.8789 110.547 60.8787 111.773 60.8787ZM22.2656 12.4688H51.2109V79.7109H22.2656V12.4688ZM100.641 92.625H13.3594V31.9572C13.6344 31.751 13.9821 31.5114 14.3836 31.281C14.9135 30.9719 15.8756 30.4908 16.9453 30.3331C17.1697 30.3 17.7613 30.2812 17.8125 30.2835V81.8262C17.8125 83.0552 18.81 84.1641 20.0391 84.1641H53.4375C54.6666 84.1641 55.6641 83.0552 55.6641 81.8262V35.9367C56.0849 35.9835 56.5703 36.008 57.0045 36.008C59.3891 36.008 61.1614 35.2955 62.1812 34.6965C63.0941 34.1644 66.7635 31.1518 67.2021 30.9114C67.8968 30.5306 68.616 30.2924 70.0521 30.2812C71.4971 30.2924 72.1852 30.5173 72.8843 30.898C73.314 31.1363 77.0079 34.1644 77.923 34.6965C78.9428 35.2955 80.6597 35.9828 83.0419 36.008C85.4258 36.0331 87.2634 35.2955 88.2832 34.6965C89.1961 34.1644 92.6651 31.3166 93.1928 31.0182C93.8719 30.642 94.7302 30.2924 96.2643 30.2812C97.3175 30.2812 98.6122 30.6887 99.7856 31.3968C100.12 31.5969 100.41 31.7964 100.641 31.967V92.625Z" fill="#0095D9"/>
<path d="M26.7188 65.127C26.7188 70.6517 31.2135 75.1465 36.7383 75.1465C42.2631 75.1465 46.7578 70.6517 46.7578 65.127C46.7578 62.2629 45.5279 59.5508 43.418 57.6615V50.3203H44.5312C45.761 50.3203 46.7578 49.3233 46.7578 48.0938C46.7578 46.8642 45.761 45.8672 44.5312 45.8672H43.418V23.6016C43.418 19.9184 40.4215 16.9219 36.7383 16.9219C33.0551 16.9219 30.0586 19.9184 30.0586 23.6016V45.8672H28.9453C27.7156 45.8672 26.7188 46.8642 26.7188 48.0938C26.7188 49.3233 27.7156 50.3203 28.9453 50.3203H30.0586V57.6615C27.9487 59.5508 26.7188 62.2629 26.7188 65.127ZM36.7383 70.6934C33.669 70.6934 31.1719 68.1963 31.1719 65.127C31.1719 63.3099 32.0643 61.6023 33.5594 60.5592C34.1561 60.1426 34.5117 59.4608 34.5117 58.7332V42.5273H38.9648V58.7332C38.9648 59.461 39.3204 60.1426 39.9171 60.5592C41.4123 61.6023 42.3047 63.3099 42.3047 65.127C42.3047 68.1963 39.8076 70.6934 36.7383 70.6934ZM34.5117 23.6016C34.5117 22.3738 35.5106 21.375 36.7383 21.375C37.966 21.375 38.9648 22.3738 38.9648 23.6016V38.0742H34.5117V23.6016Z" fill="#0095D9"/>
</g>
<defs>
<clipPath id="clip0">
<rect width="114" height="114" fill="white"/>
</clipPath>
</defs>
</svg>
