<svg width="108" height="108" viewBox="0 0 108 108" fill="none" xmlns="http://www.w3.org/2000/svg">
<g clip-path="url(#clip0)">
<path d="M105.891 73.0955C107.056 73.0955 108 72.1512 108 70.9861V53.9475C108 52.7825 107.056 51.8381 105.891 51.8381H95.025V36.9088C95.025 35.7438 94.0807 34.7994 92.9156 34.7994H82.3373C83.2769 32.6215 83.4397 29.657 81.57 25.7341L79.3412 21.0553L84.456 18.6277L85.6126 21.0526C86.2737 22.4387 87.6604 23.2508 89.1023 23.2508C89.655 23.2508 90.2159 23.1314 90.7468 22.8791L97.7438 19.5579C97.7463 19.5566 97.7491 19.5558 97.7518 19.5547C97.7546 19.5535 97.7569 19.5518 97.7596 19.5505L102.576 17.2646C104.659 16.2728 106.233 14.5239 107.008 12.3398C107.78 10.1625 107.66 7.82113 106.67 5.74719C104.62 1.45103 99.4477 -0.385818 95.1381 1.65374L83.3112 7.26763C82.3821 7.7087 81.6805 8.48642 81.3356 9.45779C80.9907 10.4289 81.0445 11.4746 81.4868 12.4021L82.6398 14.8198L77.5267 17.2467L75.2973 12.5664C72.3743 6.43864 68.1417 5.62168 65.1042 6.01571C58.9699 6.81137 52.8221 13.2694 49.2303 17.7546H24.0171C22.8521 17.7546 21.9078 18.699 21.9078 19.864C21.9078 21.029 22.8521 21.9733 24.0171 21.9733H25.9436V34.7992H15.0782H4.21875V21.9733H5.06904C6.23405 21.9733 7.17841 21.029 7.17841 19.864C7.17841 18.699 6.23405 17.7546 5.06904 17.7546H2.10938C0.944367 17.7546 0 18.699 0 19.864V36.9086C0 38.0736 0.944367 39.0179 2.10938 39.0179H12.9689V51.8379H2.10938C0.944367 51.8379 0 52.7822 0 53.9472V70.9859C0 72.1509 0.944367 73.0953 2.10938 73.0953H12.9689V85.9152H2.10938C0.944367 85.9152 0 86.8596 0 88.0246V105.069C0 106.234 0.944367 107.179 2.10938 107.179H105.891C107.056 107.179 108 106.234 108 105.069V88.0246C108 86.8596 107.056 85.9152 105.891 85.9152H95.025V73.0953H105.891V73.0955ZM96.9452 5.46601C99.1569 4.41913 101.811 5.36075 102.863 7.56399C103.367 8.62016 103.427 9.81575 103.032 10.9301C102.634 12.0511 101.828 12.9478 100.765 13.4542L97.8415 14.8418L94.0307 6.84934L96.9452 5.46601ZM90.2197 8.65855L94.0304 16.651L89.266 18.9126L87.3598 14.9158C87.3596 14.9154 87.3596 14.9152 87.3593 14.9147C87.3591 14.9143 87.3589 14.9141 87.3587 14.9137L85.4542 10.9204L90.2197 8.65855ZM103.781 68.8768H82.0503V56.0568H103.781V68.8768ZM56.1064 68.8768V56.0568H77.8315V68.8768H56.1064ZM51.8877 90.1342V102.96H30.1626V90.1342H51.8877ZM56.1064 90.1342H77.8315V102.96H56.1064V90.1342ZM43.1374 85.9155V73.0955H64.8624V85.9155H43.1374ZM51.8877 56.0568V68.8768H30.1626V56.0568H51.8877ZM43.1374 51.8383V40.0475C47.3797 41.437 53.6053 42.4349 59.6628 42.6184C60.2737 42.6368 60.9384 42.6486 61.6442 42.6486C62.6459 42.6486 63.7314 42.6245 64.8624 42.564V51.8385H43.1374V51.8383ZM90.8063 39.0182V51.8381H69.0814V42.1611C72.5332 41.6709 76.0096 40.7335 78.6276 39.0179H90.8063V39.0182ZM51.6896 21.4557C56.7154 14.8892 61.9331 10.6812 65.6469 10.1997C67.2022 9.99779 69.5001 10.2121 71.489 14.3819L73.7155 19.0557L68.7996 21.3888C67.7472 21.8883 67.299 23.1466 67.7985 24.1989C68.1594 24.9594 68.9162 25.4042 69.7056 25.4042C70.0087 25.4042 70.3167 25.3384 70.6086 25.2001L75.5298 22.8643L77.7613 27.5491C79.743 31.7068 78.4719 33.6148 77.3434 34.6882C74.6354 37.264 68.0727 38.652 59.7902 38.4014C52.9516 38.1944 46.8769 36.9864 43.5278 35.7189C44.6544 32.3308 47.5428 26.8738 51.6896 21.4557ZM30.1626 21.9736H46.1114C42.9867 26.5429 40.4844 31.3132 39.3955 34.7994H30.1626V21.9736ZM17.1876 39.0182H38.9186V51.8381H17.1876V39.0182ZM4.21875 56.0568H25.9438V68.8768H4.21875V56.0568ZM17.1876 73.0955H38.9186V85.9155H17.1876V73.0955ZM4.21875 90.1342H25.9438V102.96H4.21875V90.1342ZM103.781 102.96H82.0503V90.1342H103.781V102.96ZM90.8063 85.9155H69.0814V73.0955H90.8065V85.9155H90.8063Z" fill="#0095D9"/>
<path d="M14.546 21.9735H14.5519C15.7169 21.9735 16.6583 21.0292 16.6583 19.8642C16.6583 18.6992 15.711 17.7548 14.546 17.7548C13.381 17.7548 12.4366 18.6992 12.4366 19.8642C12.4366 21.0292 13.3812 21.9735 14.546 21.9735Z" fill="#0095D9"/>
</g>
<defs>
<clipPath id="clip0">
<rect width="108" height="108" fill="white"/>
</clipPath>
</defs>
</svg>
