<svg width="16" height="16" fill="none" xmlns="http://www.w3.org/2000/svg"><path d="M14.213 6.367l-1.26-.42.593-1.187A.666.666 0 0013.42 4L12 2.58a.667.667 0 00-.767-.127l-1.187.594-.42-1.26A.667.667 0 009 1.333H7a.667.667 0 00-.634.454l-.42 1.26-1.186-.594A.667.667 0 004 2.58L2.58 4a.667.667 0 00-.127.767l.593 1.186-1.26.42A.667.667 0 001.333 7v2a.667.667 0 00.453.633l1.26.42-.593 1.187a.667.667 0 00.127.76L4 13.42a.667.667 0 00.766.127l1.187-.594.42 1.26a.666.666 0 00.633.454h2a.667.667 0 00.634-.454l.42-1.26 1.186.594A.668.668 0 0012 13.42L13.42 12a.667.667 0 00.126-.767l-.593-1.186 1.26-.42A.667.667 0 0014.666 9V7a.667.667 0 00-.453-.633zm-.88 2.153l-.8.267a1.333 1.333 0 00-.773 1.88l.38.76-.734.733-.74-.4a1.332 1.332 0 00-1.86.773l-.266.8H7.48l-.267-.8a1.333 1.333 0 00-1.88-.773l-.76.38-.733-.733.4-.74a1.333 1.333 0 00-.774-1.88l-.8-.267V7.48l.8-.267a1.333 1.333 0 00.774-1.88l-.38-.74.733-.733.74.38a1.333 1.333 0 001.88-.773l.267-.8h1.04l.266.8a1.333 1.333 0 001.88.773l.76-.38.734.733-.4.74a1.334 1.334 0 00.773 1.86l.8.267v1.06zM8 5.333a2.667 2.667 0 100 5.334 2.667 2.667 0 000-5.334zm0 4a1.333 1.333 0 110-2.667 1.333 1.333 0 010 2.667z" fill="#0095D9"/></svg>