<svg width="16" height="16" fill="none" xmlns="http://www.w3.org/2000/svg"><path d="M10 9.333H6a.667.667 0 000 1.334h4a.667.667 0 000-1.334zm0-2.666H7.334a.667.667 0 100 1.333H10a.667.667 0 100-1.333zm1.334-4h-.787a2 2 0 00-1.88-1.334H7.334a2 2 0 00-1.88 1.334h-.787a2 2 0 00-2 2v8a2 2 0 002 2h6.667a2 2 0 002-2v-8a2 2 0 00-2-2zm-4.667.666a.667.667 0 01.667-.666h1.333a.667.667 0 01.667.666V4H6.667v-.667zM12 12.667a.667.667 0 01-.666.666H4.667A.667.667 0 014 12.667v-8A.667.667 0 014.667 4h.667v.667A.667.667 0 006 5.333h4a.667.667 0 00.667-.666V4h.667a.667.667 0 01.666.667v8z" fill="#0095D9"/></svg>