<svg width="60" height="60" viewBox="0 0 60 60" fill="none" xmlns="http://www.w3.org/2000/svg">
<path d="M52.5002 5H47.5002H47.2752H46.7502L46.3502 5.175L45.9252 5.45C45.8047 5.54548 45.6957 5.65454 45.6002 5.775C45.5024 5.89876 45.4186 6.0329 45.3502 6.175C45.2629 6.31498 45.1956 6.46644 45.1502 6.625V6.85L43.4502 15H40.6002L32.8002 7.225C31.3753 5.85608 29.4761 5.09157 27.5002 5.09157C25.5243 5.09157 23.625 5.85608 22.2002 7.225L14.4002 15H7.50017C7.05965 14.9983 6.62648 15.1129 6.24454 15.3324C5.86259 15.552 5.54543 15.8685 5.32517 16.25C5.10575 16.63 4.99023 17.0612 4.99023 17.5C4.99023 17.9388 5.10575 18.37 5.32517 18.75L15.3252 36.25L13.4002 40C13.1007 39.9754 12.7997 39.9754 12.5002 40C11.0168 40 9.56676 40.4399 8.33339 41.264C7.10003 42.0881 6.13873 43.2594 5.57107 44.6299C5.00342 46.0003 4.85489 47.5083 5.14428 48.9632C5.43367 50.418 6.14798 51.7544 7.19687 52.8033C8.24576 53.8522 9.58214 54.5665 11.037 54.8559C12.4919 55.1453 13.9999 54.9968 15.3703 54.4291C16.7407 53.8614 17.9121 52.9001 18.7362 51.6668C19.5603 50.4334 20.0002 48.9834 20.0002 47.5C19.9922 45.5568 19.2304 43.6926 17.8752 42.3L20.3752 37.3L23.8252 36.95L33.6752 51.725C34.3637 52.7639 35.306 53.6099 36.4128 54.183C37.5196 54.7561 38.7544 55.0373 40.0002 55C40.9659 54.998 41.9232 54.8201 42.8252 54.475C44.4354 53.8488 45.7801 52.6858 46.6319 51.1826C47.4837 49.6794 47.7904 47.9282 47.5002 46.225L45.0002 32.5L49.4752 10H52.5002C53.1632 10 53.7991 9.73661 54.2679 9.26777C54.7368 8.79893 55.0002 8.16304 55.0002 7.5C55.0002 6.83696 54.7368 6.20107 54.2679 5.73223C53.7991 5.26339 53.1632 5 52.5002 5ZM12.5002 50C12.0057 50 11.5224 49.8534 11.1112 49.5787C10.7001 49.304 10.3797 48.9135 10.1905 48.4567C10.0013 47.9999 9.95174 47.4972 10.0482 47.0123C10.1447 46.5273 10.3828 46.0819 10.7324 45.7322C11.082 45.3826 11.5275 45.1445 12.0124 45.048C12.4974 44.9516 13.0001 45.0011 13.4569 45.1903C13.9137 45.3795 14.3041 45.7 14.5788 46.1111C14.8535 46.5222 15.0002 47.0055 15.0002 47.5C15.0002 48.163 14.7368 48.7989 14.2679 49.2678C13.7991 49.7366 13.1632 50 12.5002 50ZM25.7502 10.725C26.2175 10.2669 26.8458 10.0104 27.5002 10.0104C28.1546 10.0104 28.7828 10.2669 29.2502 10.725L33.5252 15H21.4752L25.7502 10.725ZM18.8752 32.35L11.8002 20H42.5002L40.4502 30.2L18.8752 32.35ZM40.9002 49.85C40.367 50.0593 39.778 50.0792 39.232 49.9062C38.6859 49.7333 38.2157 49.3781 37.9002 48.9L29.5502 36.4L40.4752 35.325L42.5002 47.05C42.6005 47.6267 42.4954 48.2203 42.203 48.7274C41.9106 49.2345 41.4495 49.6229 40.9002 49.825V49.85Z" fill="#0095D9"/>
</svg>
