<svg width="60" height="60" viewBox="0 0 60 60" fill="none" xmlns="http://www.w3.org/2000/svg">
<path d="M35 31.2501H32.5V28.7501C32.5 28.087 32.2366 27.4511 31.7678 26.9823C31.2989 26.5134 30.663 26.2501 30 26.2501C29.337 26.2501 28.7011 26.5134 28.2322 26.9823C27.7634 27.4511 27.5 28.087 27.5 28.7501V31.2501H25C24.337 31.2501 23.7011 31.5135 23.2322 31.9823C22.7634 32.4511 22.5 33.087 22.5 33.7501C22.5 34.4131 22.7634 35.049 23.2322 35.5178C23.7011 35.9867 24.337 36.2501 25 36.2501H27.5V38.7501C27.5 39.4131 27.7634 40.049 28.2322 40.5178C28.7011 40.9867 29.337 41.2501 30 41.2501C30.663 41.2501 31.2989 40.9867 31.7678 40.5178C32.2366 40.049 32.5 39.4131 32.5 38.7501V36.2501H35C35.663 36.2501 36.2989 35.9867 36.7678 35.5178C37.2366 35.049 37.5 34.4131 37.5 33.7501C37.5 33.087 37.2366 32.4511 36.7678 31.9823C36.2989 31.5135 35.663 31.2501 35 31.2501ZM47.5 13.7501H31.8L31 11.2501C30.4814 9.78313 29.5194 8.51381 28.2473 7.61796C26.9751 6.7221 25.4559 6.24406 23.9 6.25006H12.5C10.5109 6.25006 8.60322 7.04023 7.1967 8.44676C5.79018 9.85328 5 11.7609 5 13.7501V46.2501C5 48.2392 5.79018 50.1468 7.1967 51.5534C8.60322 52.9599 10.5109 53.7501 12.5 53.7501H47.5C49.4891 53.7501 51.3968 52.9599 52.8033 51.5534C54.2098 50.1468 55 48.2392 55 46.2501V21.2501C55 19.2609 54.2098 17.3533 52.8033 15.9468C51.3968 14.5402 49.4891 13.7501 47.5 13.7501ZM50 46.2501C50 46.9131 49.7366 47.549 49.2678 48.0178C48.7989 48.4867 48.163 48.7501 47.5 48.7501H12.5C11.837 48.7501 11.2011 48.4867 10.7322 48.0178C10.2634 47.549 10 46.9131 10 46.2501V13.7501C10 13.087 10.2634 12.4511 10.7322 11.9823C11.2011 11.5134 11.837 11.2501 12.5 11.2501H23.9C24.4241 11.2487 24.9354 11.4121 25.3616 11.7172C25.7878 12.0222 26.1073 12.4535 26.275 12.9501L27.625 17.0501C27.7927 17.5466 28.1122 17.9779 28.5384 18.283C28.9646 18.588 29.4759 18.7514 30 18.7501H47.5C48.163 18.7501 48.7989 19.0134 49.2678 19.4823C49.7366 19.9511 50 20.587 50 21.2501V46.2501Z" fill="#0095D9"/>
</svg>
