<svg width="60" height="60" viewBox="0 0 60 60" fill="none" xmlns="http://www.w3.org/2000/svg">
<path d="M30 50H12.5C11.837 50 11.2011 49.7366 10.7322 49.2678C10.2634 48.7989 10 48.163 10 47.5V12.5C10 11.837 10.2634 11.2011 10.7322 10.7322C11.2011 10.2634 11.837 10 12.5 10H25V17.5C25 19.4891 25.7902 21.3968 27.1967 22.8033C28.6032 24.2098 30.5109 25 32.5 25H40V27.5C40 28.163 40.2634 28.7989 40.7322 29.2678C41.2011 29.7366 41.837 30 42.5 30C43.163 30 43.7989 29.7366 44.2678 29.2678C44.7366 28.7989 45 28.163 45 27.5V22.5C45 22.5 45 22.5 45 22.35C44.974 22.1203 44.9237 21.8941 44.85 21.675V21.45C44.7298 21.1929 44.5695 20.9567 44.375 20.75L29.375 5.75C29.1683 5.55554 28.9321 5.3952 28.675 5.275C28.6004 5.2644 28.5246 5.2644 28.45 5.275C28.196 5.12935 27.9156 5.03586 27.625 5H12.5C10.5109 5 8.60322 5.79018 7.1967 7.1967C5.79018 8.60322 5 10.5109 5 12.5V47.5C5 49.4891 5.79018 51.3968 7.1967 52.8033C8.60322 54.2098 10.5109 55 12.5 55H30C30.663 55 31.2989 54.7366 31.7678 54.2678C32.2366 53.7989 32.5 53.163 32.5 52.5C32.5 51.837 32.2366 51.2011 31.7678 50.7322C31.2989 50.2634 30.663 50 30 50ZM30 13.525L36.475 20H32.5C31.837 20 31.2011 19.7366 30.7322 19.2678C30.2634 18.7989 30 18.163 30 17.5V13.525ZM17.5 20C16.837 20 16.2011 20.2634 15.7322 20.7322C15.2634 21.2011 15 21.837 15 22.5C15 23.163 15.2634 23.7989 15.7322 24.2678C16.2011 24.7366 16.837 25 17.5 25H20C20.663 25 21.2989 24.7366 21.7678 24.2678C22.2366 23.7989 22.5 23.163 22.5 22.5C22.5 21.837 22.2366 21.2011 21.7678 20.7322C21.2989 20.2634 20.663 20 20 20H17.5ZM54.275 50.725L51.35 47.825C52.2849 46.1931 52.6591 44.2998 52.4153 42.435C52.1714 40.5701 51.323 38.8366 50 37.5C48.7826 36.2392 47.2136 35.3742 45.4976 35.0179C43.7815 34.6615 41.9979 34.8302 40.3791 35.502C38.7603 36.1738 37.3814 37.3175 36.4219 38.7842C35.4625 40.251 34.967 41.9726 35 43.725C34.9914 45.233 35.3772 46.717 36.1191 48.0299C36.8609 49.3427 37.9331 50.4388 39.2293 51.2095C40.5255 51.9801 42.0007 52.3985 43.5085 52.4232C45.0163 52.4478 46.5043 52.0779 47.825 51.35L50.725 54.275C50.9574 54.5093 51.2339 54.6953 51.5386 54.8222C51.8432 54.9492 52.17 55.0145 52.5 55.0145C52.83 55.0145 53.1568 54.9492 53.4614 54.8222C53.7661 54.6953 54.0426 54.5093 54.275 54.275C54.5093 54.0426 54.6953 53.7661 54.8222 53.4614C54.9492 53.1568 55.0145 52.83 55.0145 52.5C55.0145 52.17 54.9492 51.8432 54.8222 51.5386C54.6953 51.2339 54.5093 50.9574 54.275 50.725ZM46.35 46.35C45.636 47.0215 44.6927 47.3953 43.7125 47.3953C42.7323 47.3953 41.789 47.0215 41.075 46.35C40.3868 45.6495 40.0008 44.707 40 43.725C39.9948 43.2319 40.0896 42.7428 40.2787 42.2874C40.4677 41.8319 40.7471 41.4195 41.1 41.075C41.7665 40.4121 42.6604 40.0277 43.6 40C44.1054 39.9689 44.6118 40.0427 45.0874 40.2166C45.563 40.3904 45.9976 40.6608 46.3638 41.0105C46.7299 41.3603 47.0199 41.782 47.2154 42.2491C47.411 42.7162 47.5078 43.2187 47.5 43.725C47.4793 44.7177 47.0658 45.6618 46.35 46.35ZM32.5 30H17.5C16.837 30 16.2011 30.2634 15.7322 30.7322C15.2634 31.2011 15 31.837 15 32.5C15 33.163 15.2634 33.7989 15.7322 34.2678C16.2011 34.7366 16.837 35 17.5 35H32.5C33.163 35 33.7989 34.7366 34.2678 34.2678C34.7366 33.7989 35 33.163 35 32.5C35 31.837 34.7366 31.2011 34.2678 30.7322C33.7989 30.2634 33.163 30 32.5 30ZM27.5 45C28.163 45 28.7989 44.7366 29.2678 44.2678C29.7366 43.7989 30 43.163 30 42.5C30 41.837 29.7366 41.2011 29.2678 40.7322C28.7989 40.2634 28.163 40 27.5 40H17.5C16.837 40 16.2011 40.2634 15.7322 40.7322C15.2634 41.2011 15 41.837 15 42.5C15 43.163 15.2634 43.7989 15.7322 44.2678C16.2011 44.7366 16.837 45 17.5 45H27.5Z" fill="#0095D9"/>
</svg>
