<svg width="60" height="60" viewBox="0 0 60 60" fill="none" xmlns="http://www.w3.org/2000/svg">
<path d="M6.25002 22.1501L28.75 35.1501C29.1301 35.3695 29.5612 35.485 30 35.485C30.4389 35.485 30.87 35.3695 31.25 35.1501L53.75 22.1501C54.1279 21.9319 54.442 21.6187 54.6613 21.2415C54.8806 20.8644 54.9974 20.4364 55 20.0001C55.0018 19.5595 54.8871 19.1264 54.6676 18.7444C54.4481 18.3625 54.1315 18.0453 53.75 17.8251L31.25 4.85007C30.87 4.63065 30.4389 4.51514 30 4.51514C29.5612 4.51514 29.1301 4.63065 28.75 4.85007L6.25002 17.8251C5.8685 18.0453 5.55197 18.3625 5.33246 18.7444C5.11295 19.1264 4.99827 19.5595 5.00002 20.0001C5.00265 20.4364 5.11941 20.8644 5.3387 21.2415C5.55799 21.6187 5.87217 21.9319 6.25002 22.1501ZM30 10.0001L47.5 20.0001L30 30.0001L12.5 20.0001L30 10.0001ZM51.25 27.9251L30 40.0001L8.75002 27.8251C8.46468 27.6598 8.14946 27.5526 7.82252 27.5096C7.49557 27.4666 7.16336 27.4888 6.84501 27.5748C6.52666 27.6607 6.22846 27.8089 5.96759 28.0106C5.70672 28.2123 5.48834 28.4636 5.32502 28.7501C4.99908 29.3241 4.91342 30.0038 5.08671 30.6407C5.26 31.2777 5.67819 31.8203 6.25002 32.1501L28.75 45.1501C29.1301 45.3695 29.5612 45.485 30 45.485C30.4389 45.485 30.87 45.3695 31.25 45.1501L53.75 32.1501C54.3218 31.8203 54.74 31.2777 54.9133 30.6407C55.0866 30.0038 55.0009 29.3241 54.675 28.7501C54.5117 28.4636 54.2933 28.2123 54.0324 28.0106C53.7716 27.8089 53.4734 27.6607 53.155 27.5748C52.8367 27.4888 52.5045 27.4666 52.1775 27.5096C51.8506 27.5526 51.5354 27.6598 51.25 27.8251V27.9251ZM51.25 37.9251L30 50.0001L8.75002 37.8251C8.46468 37.6598 8.14946 37.5526 7.82252 37.5096C7.49557 37.4666 7.16336 37.4888 6.84501 37.5748C6.52666 37.6607 6.22846 37.8089 5.96759 38.0106C5.70672 38.2123 5.48834 38.4636 5.32502 38.7501C4.99908 39.3241 4.91342 40.0038 5.08671 40.6407C5.26 41.2777 5.67819 41.8203 6.25002 42.1501L28.75 55.1501C29.1301 55.3695 29.5612 55.485 30 55.485C30.4389 55.485 30.87 55.3695 31.25 55.1501L53.75 42.1501C54.3218 41.8203 54.74 41.2777 54.9133 40.6407C55.0866 40.0038 55.0009 39.3241 54.675 38.7501C54.5117 38.4636 54.2933 38.2123 54.0324 38.0106C53.7716 37.8089 53.4734 37.6607 53.155 37.5748C52.8367 37.4888 52.5045 37.4666 52.1775 37.5096C51.8506 37.5526 51.5354 37.6598 51.25 37.8251V37.9251Z" fill="#0095D9"/>
</svg>
