<svg width="200" height="75" viewBox="0 0 200 75" fill="none" xmlns="http://www.w3.org/2000/svg">
<g clip-path="url(#clip0_56_2219)">
<path fill-rule="evenodd" clip-rule="evenodd" d="M41.1699 58.4331L55.3283 68.7485L64.7344 66.404L65.4316 59.316C56.7472 55.7177 46.9495 55.7123 41.1699 58.4331Z" fill="white"/>
<path fill-rule="evenodd" clip-rule="evenodd" d="M9.56641 35.0421L14.8562 39.0968C24.6621 31.8826 24.718 23.6333 25.5121 18.4009L15.5493 22.1391L9.56641 35.0421Z" fill="white"/>
<path fill-rule="evenodd" clip-rule="evenodd" d="M56.1484 6.91736C61.7725 11.2329 66.2136 16.7804 70.6793 22.1364L71.914 11.3823L64.2843 3.6084L56.1484 6.91736Z" fill="white"/>
<path fill-rule="evenodd" clip-rule="evenodd" d="M8.71754 34.5922L14.3689 22.458L12.4382 23.1997L7.64648 33.7799L8.71754 34.5922Z" fill="white"/>
<path fill-rule="evenodd" clip-rule="evenodd" d="M6.96808 33.2641L11.5061 23.5586L9.79238 24.216L5.9707 32.5061L6.96808 33.2641Z" fill="white"/>
<path fill-rule="evenodd" clip-rule="evenodd" d="M65.0254 3.30672L72.0056 10.2357L72.1898 8.58802L66.357 2.77832L65.0254 3.30672Z" fill="white"/>
<path fill-rule="evenodd" clip-rule="evenodd" d="M66.9941 2.50917L72.288 7.71168L72.4968 5.85209L68.5168 1.89111L66.9941 2.50917Z" fill="white"/>
<path fill-rule="evenodd" clip-rule="evenodd" d="M4.02539 31.0293L5.25198 31.9611L8.64251 24.5947L6.8224 25.3554L4.02539 31.0293Z" fill="white"/>
<path fill-rule="evenodd" clip-rule="evenodd" d="M56.0801 69.297L57.4213 70.2751L64.5148 68.4508L64.7222 67.0381L56.0801 69.297Z" fill="white"/>
<path fill-rule="evenodd" clip-rule="evenodd" d="M58.1992 70.817L59.7123 71.9444L64.3063 70.7368L64.5055 69.1489L58.1992 70.817Z" fill="white"/>
<path fill-rule="evenodd" clip-rule="evenodd" d="M2.34961 29.7581L3.43703 30.584L5.90113 25.7102L3.98688 26.4451L2.34961 29.7581Z" fill="white"/>
<path fill-rule="evenodd" clip-rule="evenodd" d="M69.4473 1.5465L72.6263 4.6748L72.8023 3.10318L70.7298 0.993652L69.4473 1.5465Z" fill="white"/>
<path fill-rule="evenodd" clip-rule="evenodd" d="M60.4277 72.4661L61.8644 73.5121L64.1007 72.8275L64.2317 71.4922L60.4277 72.4661Z" fill="white"/>
<path fill-rule="evenodd" clip-rule="evenodd" d="M0 27.9746L1.68094 29.3085L2.87478 26.8716L0 27.9746Z" fill="white"/>
<path fill-rule="evenodd" clip-rule="evenodd" d="M71.416 0.714967L72.8268 2.16705L73.1474 0.0126953L71.416 0.714967Z" fill="white"/>
<path fill-rule="evenodd" clip-rule="evenodd" d="M62.666 74.1032L63.8885 74.9875L64.0086 73.7759L62.666 74.1032Z" fill="white"/>
<path fill-rule="evenodd" clip-rule="evenodd" d="M43.57 13.6859C46.2428 14.2197 47.9579 15.4259 50.3647 17.3276C56.8688 22.4677 63.7589 31.8403 66.1726 38.298C67.7375 42.4858 67.0649 44.7746 65.71 46.1085C63.733 48.0537 61.2989 47.3664 58.049 46.2484C56.6723 45.7744 55.2137 45.0993 53.4741 44.7149C51.1205 44.1946 45.3955 44.7502 41.9163 46.497C38.9815 47.9708 36.0044 49.2124 33.3425 49.9228C28.5903 51.1902 23.9977 49.8033 25.7182 44.4649C26.4509 42.1924 27.7525 40.1616 28.9655 38.2029C32.8799 31.8892 37.6881 26.6596 36.602 17.7229C36.3428 15.5916 38.8669 12.7445 43.57 13.6859ZM28.8072 27.7707C26.6515 32.021 26.5246 32.4937 23.8231 36.6367L21.168 40.7525C18.974 44.071 14.1973 51.4768 14.1973 54.7069C14.1973 58.9803 18.7775 60.1268 24.4057 58.6272C33.8255 56.1169 43.1061 51.6289 48.1653 50.9239C59.603 49.3292 74.9988 63.3692 74.9988 47.9464C74.9988 39.9008 65.8356 26.2724 60.5826 20.2033C57.3681 16.4882 54.6421 13.3721 50.8518 10.2248C46.2729 6.42136 39.2817 1.63315 33.558 6.69032C29.1333 10.5997 33.4694 18.576 28.8072 27.7707Z" fill="white"/>
<path fill-rule="evenodd" clip-rule="evenodd" d="M39.1967 41.1873C38.4695 41.1873 37.6058 41.4739 37.3452 40.265C37.0846 39.0574 38.1625 37.191 39.1967 35.6561C40.3742 33.8766 41.961 31.725 42.3826 29.0273C42.6104 27.5616 42.0483 25.6083 43.2326 24.5406C45.3856 22.5995 49.6507 25.1573 54.9309 32.8986C56.9857 36.4561 58.5438 41.1819 52.5596 38.946C46.7677 36.7821 41.1764 41.1873 39.1967 41.1873ZM31.3037 49.3293C36.9782 48.9775 46.7132 40.7839 56.575 45.0165C64.1842 48.2806 67.0931 45.4254 66.048 40.572C64.554 33.6335 51.4708 15.6053 43.5969 14.3638C39.4696 13.7131 37.1269 15.8716 37.3698 18.1033C38.6769 30.0705 28.5435 38.15 26.3659 45.2067C25.812 47.0024 26.8612 49.605 31.3037 49.3293Z" fill="white"/>
<path fill-rule="evenodd" clip-rule="evenodd" d="M120.608 25.1463H121.732L118.808 28.3996L121.973 31.8892H120.775L117.684 28.4743V31.8892H116.658V25.1463H117.684V28.4254L120.608 25.1463ZM132.332 28.511C132.332 29.6126 132.054 30.4725 131.499 31.0892C130.942 31.7072 130.174 32.0142 129.193 32.0142C128.587 32.0142 128.05 31.8743 127.579 31.5904C127.111 31.3079 126.749 30.899 126.493 30.3706C126.236 29.8408 126.108 29.2214 126.108 28.511C126.108 27.4107 126.385 26.555 126.938 25.941C127.489 25.3284 128.256 25.02 129.235 25.02C130.185 25.02 130.935 25.3338 131.495 25.9614C132.054 26.5889 132.332 27.4406 132.332 28.511ZM127.172 28.511C127.172 29.3722 127.344 30.0296 127.691 30.482C128.036 30.933 128.545 31.1584 129.219 31.1584C129.889 31.1584 130.4 30.933 130.748 30.4833C131.096 30.0337 131.268 29.3763 131.268 28.511C131.268 27.6539 131.096 27.0032 130.748 26.5577C130.4 26.1121 129.885 25.8894 129.205 25.8894C128.533 25.8894 128.026 26.1081 127.684 26.5482C127.343 26.9869 127.172 27.6417 127.172 28.511ZM141.135 30.9031L141.328 30.3326L141.594 29.6058L143.429 25.1586H144.733V31.8892H143.826V26.32L143.702 26.6772L143.343 27.6186L141.594 31.8892H140.733L138.984 27.6077C138.76 27.0603 138.615 26.6297 138.532 26.32V31.8892H137.619V25.1586H138.872L140.648 29.4333C140.835 29.8816 140.988 30.376 141.135 30.9031ZM151.289 31.8892H150.263V25.1463H155.947V31.8892H154.909V26.0293H151.289V31.8892ZM165.61 31.8892L165.405 30.9289H165.355C165.016 31.3513 164.682 31.6407 164.345 31.7901C164.01 31.9409 163.591 32.0142 163.089 32.0142C162.416 32.0142 161.889 31.8431 161.509 31.498C161.127 31.153 160.936 30.6626 160.936 30.0242C160.936 28.6604 162.031 27.9527 164.217 27.8807L165.367 27.844V27.4257C165.367 26.8986 165.254 26.5074 165.025 26.2561C164.795 26.0021 164.43 25.8771 163.928 25.8771C163.363 25.8771 162.726 26.0497 162.012 26.3947L161.698 25.6123C162.031 25.4316 162.397 25.289 162.793 25.1857C163.192 25.0825 163.591 25.0336 163.989 25.0336C164.797 25.0336 165.394 25.2115 165.785 25.5688C166.175 25.926 166.369 26.4966 166.369 27.2844V31.8892H165.61ZM163.291 31.1707C163.93 31.1707 164.431 30.9954 164.795 30.6477C165.16 30.2986 165.344 29.811 165.344 29.1834V28.5748L164.317 28.6183C163.502 28.6536 162.914 28.7732 162.552 28.9973C162.192 29.2201 162.012 29.5678 162.012 30.0378C162.012 30.4086 162.125 30.6885 162.349 30.88C162.574 31.0729 162.888 31.1707 163.291 31.1707ZM172.945 25.1463V27.969H176.742V25.1463H177.767V31.8892H176.742V28.8519H172.945V31.8892H171.919V25.1463H172.945ZM184.226 25.1463V29.4211L184.181 30.5417L184.164 30.8936L187.831 25.1463H189.109V31.8892H188.151V27.768L188.17 26.9557L188.202 26.1542L184.54 31.8892H183.261V25.1463H184.226ZM194.981 31.8892H193.781L195.728 29.038C195.205 28.9226 194.803 28.7012 194.526 28.3711C194.249 28.041 194.11 27.6267 194.11 27.1255C194.11 26.5115 194.316 26.0279 194.732 25.6761C195.149 25.3229 195.73 25.1463 196.475 25.1463H199.492V31.8892H198.465V29.1915H196.754L194.981 31.8892ZM195.11 27.1377C195.11 27.9188 195.68 28.31 196.815 28.31H198.465V26.0293H196.605C195.608 26.0293 195.11 26.3988 195.11 27.1377Z" fill="white"/>
<path fill-rule="evenodd" clip-rule="evenodd" d="M92.6016 26.1543L105.038 51.1861H103.877L99.1684 41.8651H85.8696L81.2266 51.1861H80.1992L92.6016 26.1543ZM92.502 28.4037L86.3008 40.9197H98.77L92.502 28.4037ZM107.658 51.1861H106.696L114.025 36.0961L121.388 51.1861H120.227L113.926 38.3116L107.658 51.1861ZM124.358 36.558H125.419V41.6097L130.902 41.6871C132.228 41.7061 133.367 42.1653 134.318 43.1216C135.269 44.0765 135.744 45.208 135.744 46.5107C135.744 47.8147 135.258 48.9394 134.285 49.8848C133.312 50.8289 132.151 51.3179 130.802 51.3016L124.358 51.2255V36.558ZM125.419 42.4899V50.3453L130.836 50.4227C131.874 50.4363 132.782 50.037 133.555 49.2654C134.329 48.4939 134.715 47.581 134.715 46.527C134.715 45.4729 134.323 44.5506 133.538 43.7573C132.754 42.964 131.853 42.5823 130.836 42.5673L125.419 42.4899ZM148.002 36.5525V37.4654H142.297V51.1861H141.237V37.4654H135.532V36.5525H148.002ZM156.556 51.7512H156.192C154.1 51.7512 152.279 50.9742 150.77 49.4366C149.261 47.8989 148.498 46.0855 148.498 44.0099C148.498 41.9357 149.277 40.1372 150.82 38.6322C152.362 37.1271 154.279 36.3678 156.556 36.3678C158.833 36.3678 160.791 37.2575 162.427 39.0397L152.014 49.1432C153.451 50.2733 154.833 50.8384 156.159 50.8384C157.485 50.8384 158.678 50.5355 159.724 49.9419C160.77 49.3483 161.641 48.5455 162.328 47.5471V49.2084C160.757 50.9036 158.825 51.7512 156.556 51.7512ZM156.275 37.2793C154.518 37.2793 152.958 37.9476 151.599 39.2842C150.239 40.6208 149.56 42.1585 149.56 43.8958C149.56 45.6345 150.145 47.1559 151.317 48.4585L160.967 39.0397C159.598 37.8661 158.033 37.2793 156.275 37.2793ZM165.909 57.8788V36.6924H166.971V40.2785C167.567 39.0832 168.506 38.1228 169.772 37.4097C171.039 36.6979 172.364 36.3338 173.735 36.3338C175.924 36.3338 177.786 37.0891 179.324 38.5996C180.859 40.1087 181.628 41.9194 181.628 44.0262C181.628 46.1344 180.855 47.9478 179.324 49.4529C177.79 50.9593 175.924 51.7186 173.735 51.7186C172.408 51.7186 171.11 51.36 169.855 50.6591C168.6 49.9582 167.632 49.0019 166.971 47.8079V57.8788H165.909ZM166.904 44.0588C166.904 45.8845 167.583 47.4642 168.942 48.8009C170.303 50.1375 171.917 50.8058 173.784 50.8058C175.654 50.8058 177.25 50.1375 178.576 48.8009C179.902 47.4642 180.567 45.879 180.567 44.0425C180.567 42.206 179.893 40.61 178.56 39.2679C177.228 37.9258 175.626 37.2467 173.768 37.2467C171.911 37.2467 170.298 37.9313 168.942 39.2842C167.589 40.6371 166.904 42.2346 166.904 44.0588ZM200 36.6924V51.36H198.938V47.7101C198.319 48.9476 197.386 49.931 196.154 50.6428C194.919 51.3559 193.589 51.7186 192.174 51.7186C190.007 51.7186 188.145 50.9593 186.603 49.4529C185.06 47.9478 184.281 46.1344 184.281 44.0262C184.281 41.9194 185.06 40.1046 186.603 38.5996C188.145 37.0945 190.007 36.3338 192.174 36.3338C193.589 36.3338 194.946 36.7087 196.236 37.4423C197.524 38.1771 198.43 39.1592 198.938 40.3763V36.6924H200ZM185.342 44.0588C185.342 45.8845 186.022 47.4642 187.381 48.8009C188.74 50.1375 190.355 50.8058 192.223 50.8058C194.092 50.8058 195.694 50.1334 197.015 48.8009C198.337 47.4697 199.005 45.879 199.005 44.0425C199.005 42.206 198.331 40.61 196.998 39.2679C195.667 37.9258 194.064 37.2467 192.207 37.2467C190.35 37.2467 188.737 37.9313 187.381 39.2842C186.027 40.6371 185.342 42.2346 185.342 44.0588Z" fill="white"/>
</g>
<defs>
<clipPath id="clip0_56_2219">
<rect width="200" height="75" fill="white"/>
</clipPath>
</defs>
</svg>
