<svg width="181" height="42" viewBox="0 0 181 42" fill="none" xmlns="http://www.w3.org/2000/svg">
<rect x="1" y="1" width="179" height="40" rx="4" stroke="#FBF376" stroke-width="2"/>
<path d="M10.48 27L13.616 22.264C12.8907 22.1893 12.2933 21.9653 11.824 21.592C11.2053 21.0907 10.896 20.3653 10.896 19.416C10.896 18.5413 11.1413 17.832 11.632 17.288C12.208 16.648 13.0933 16.328 14.288 16.328H16.784V27H15.6V22.328H14.96L11.92 27H10.48ZM15.6 17.448H14.448C13.5947 17.448 12.9867 17.6347 12.624 18.008C12.2827 18.3707 12.112 18.8293 12.112 19.384C12.112 20.0133 12.3147 20.4933 12.72 20.824C13.104 21.1227 13.648 21.272 14.352 21.272H15.6V17.448ZM19.2443 27V20.36H20.3963V23.08H23.5323V20.36H24.6843V27H23.5323V24.136H20.3963V27H19.2443ZM27.3336 20.36H32.0056V25.944H32.9976V28.76H31.9416V27H26.8856V28.76H25.8296V25.944C26.3843 25.9333 26.795 25.6453 27.0616 25.08C27.243 24.7067 27.3336 24.12 27.3336 23.32V20.36ZM30.8536 25.944V21.416H28.4856V23.912C28.4856 24.7973 28.219 25.4747 27.6856 25.944H30.8536ZM39.141 24.776L40.101 25.304C39.877 25.7307 39.605 26.088 39.285 26.376C38.677 26.92 37.941 27.192 37.077 27.192C36.181 27.192 35.4077 26.904 34.757 26.328C34.117 25.7413 33.797 24.872 33.797 23.72C33.797 22.7067 34.085 21.8693 34.661 21.208C35.2477 20.536 36.0317 20.2 37.013 20.2C38.1223 20.2 38.9597 20.6053 39.525 21.416C39.973 22.056 40.181 22.888 40.149 23.912H34.981C34.9917 24.584 35.1997 25.128 35.605 25.544C36.0103 25.96 36.5063 26.168 37.093 26.168C37.6157 26.168 38.069 26.008 38.453 25.688C38.7517 25.432 38.981 25.128 39.141 24.776ZM35.061 22.952H38.965C38.869 22.4293 38.6397 22.0133 38.277 21.704C37.925 21.384 37.5037 21.224 37.013 21.224C36.533 21.224 36.1063 21.3893 35.733 21.72C35.3703 22.04 35.1463 22.4507 35.061 22.952ZM41.9161 20.36H43.0681V23.08L45.7561 20.36H47.1641L44.2841 23.32L47.5161 27H46.0121L43.4201 24.088L43.0681 24.424V27H41.9161V20.36ZM53.5224 20.84V22.216C52.9997 21.5547 52.3064 21.224 51.4424 21.224C50.7917 21.224 50.237 21.448 49.7784 21.896C49.3197 22.3333 49.0904 22.936 49.0904 23.704C49.0904 24.472 49.3197 25.0747 49.7784 25.512C50.237 25.9493 50.7864 26.168 51.4264 26.168C52.2797 26.168 52.9944 25.8213 53.5704 25.128V26.504C52.941 26.9627 52.237 27.192 51.4584 27.192C50.4237 27.192 49.5704 26.8667 48.8984 26.216C48.237 25.5547 47.9064 24.7227 47.9064 23.72C47.9064 22.7067 48.2424 21.8693 48.9144 21.208C49.5864 20.536 50.4344 20.2 51.4584 20.2C52.2264 20.2 52.9144 20.4133 53.5224 20.84ZM65.8724 16.328V23.032H67.1524V24.984H65.8724V27H63.5044V24.984H58.2884V23.576L62.9924 16.328H65.8724ZM60.8804 23.032H63.5044V18.888L60.8804 23.032ZM67.9621 29.048L69.7221 24.536L71.8181 24.648L69.4021 29.112L67.9621 29.048ZM76.2755 19.528H73.9075C74.0142 18.536 74.3662 17.7307 74.9635 17.112C75.6142 16.44 76.5155 16.104 77.6675 16.104C78.9048 16.104 79.8382 16.4187 80.4675 17.048C81.0115 17.5707 81.2835 18.296 81.2835 19.224C81.2835 19.8 81.1395 20.2853 80.8515 20.68C80.6488 20.968 80.3822 21.192 80.0515 21.352C80.5848 21.544 80.9902 21.832 81.2675 22.216C81.5982 22.664 81.7635 23.224 81.7635 23.896C81.7635 24.8667 81.4062 25.6773 80.6915 26.328C80.0088 26.9467 79.0702 27.256 77.8755 27.256C76.5315 27.256 75.4915 26.888 74.7555 26.152C74.0728 25.4587 73.6782 24.5787 73.5715 23.512H76.0355C76.0782 24.0133 76.2488 24.4133 76.5475 24.712C76.8355 25 77.2302 25.144 77.7315 25.144C78.1795 25.144 78.5368 25.0213 78.8035 24.776C79.0915 24.5093 79.2355 24.1467 79.2355 23.688C79.2355 23.2613 79.0808 22.92 78.7715 22.664C78.4835 22.44 78.0462 22.328 77.4595 22.328H77.2675V20.632H77.4115C77.8808 20.632 78.2382 20.5307 78.4835 20.328C78.7502 20.104 78.8835 19.784 78.8835 19.368C78.8835 19.0053 78.7662 18.7173 78.5315 18.504C78.2968 18.2907 77.9928 18.184 77.6195 18.184C77.2142 18.184 76.8942 18.3013 76.6595 18.536C76.4248 18.792 76.2968 19.1227 76.2755 19.528Z" fill="white"/>
<path d="M100 14L102.057 18.1684L106.657 18.8369L103.329 22.0816L104.114 26.6631L100 24.5L95.8855 26.6631L96.6713 22.0816L93.3426 18.8369L97.9428 18.1684L100 14Z" fill="#FBF376"/>
<path d="M116 14L118.057 18.1684L122.657 18.8369L119.329 22.0816L120.114 26.6631L116 24.5L111.886 26.6631L112.671 22.0816L109.343 18.8369L113.943 18.1684L116 14Z" fill="#FBF376"/>
<path d="M132 14L134.057 18.1684L138.657 18.8369L135.329 22.0816L136.114 26.6631L132 24.5L127.886 26.6631L128.671 22.0816L125.343 18.8369L129.943 18.1684L132 14Z" fill="#FBF376"/>
<path d="M148 14L150.057 18.1684L154.657 18.8369L151.329 22.0816L152.114 26.6631L148 24.5L143.886 26.6631L144.671 22.0816L141.343 18.8369L145.943 18.1684L148 14Z" fill="#FBF376"/>
<path d="M164 14L166.057 18.1684L170.657 18.8369L167.329 22.0816L168.114 26.6631L164 24.5L159.886 26.6631L160.671 22.0816L157.343 18.8369L161.943 18.1684L164 14Z" fill="#999999"/>
<path d="M159.885 26.6631L163.999 24.5V14L161.942 18.1684L157.342 18.8369L160.67 22.0816L159.885 26.6631Z" fill="#FBF376"/>
</svg>
