<svg width="181" height="42" viewBox="0 0 181 42" fill="none" xmlns="http://www.w3.org/2000/svg">
<rect x="1" y="1" width="179" height="40" rx="4" stroke="#FBF376" stroke-width="2"/>
<path d="M17.696 27H10.8L14.688 22.504C15.3493 21.7253 15.7653 21.208 15.936 20.952C16.3307 20.3867 16.528 19.8427 16.528 19.32C16.528 18.712 16.3307 18.216 15.936 17.832C15.5413 17.4373 15.0293 17.24 14.4 17.24C13.632 17.24 13.04 17.5547 12.624 18.184C12.4 18.5253 12.2827 18.9467 12.272 19.448H11.088C11.1307 18.5413 11.3973 17.8053 11.888 17.24C12.528 16.5147 13.3707 16.152 14.416 16.152C15.3653 16.152 16.1493 16.456 16.768 17.064C17.3973 17.6613 17.712 18.4187 17.712 19.336C17.712 20.0507 17.4293 20.8133 16.864 21.624C16.576 22.0187 16.0907 22.6107 15.408 23.4L13.184 25.912H17.696V27ZM25.9738 22.76V21.64H30.4218V21.896C30.4218 23.2187 30.0804 24.344 29.3978 25.272C28.4484 26.552 27.1258 27.192 25.4298 27.192C23.8511 27.192 22.5338 26.664 21.4778 25.608C20.4218 24.5413 19.8938 23.2293 19.8938 21.672C19.8938 20.1147 20.4218 18.808 21.4778 17.752C22.5444 16.6853 23.8724 16.152 25.4618 16.152C26.7204 16.152 27.8084 16.504 28.7258 17.208C29.1951 17.5707 29.6058 17.992 29.9578 18.472L29.0778 19.272C28.7684 18.8347 28.4324 18.4667 28.0698 18.168C27.3338 17.5707 26.4698 17.272 25.4778 17.272C24.2084 17.272 23.1631 17.6933 22.3418 18.536C21.5204 19.3787 21.1098 20.4293 21.1098 21.688C21.1098 22.6053 21.3338 23.4107 21.7818 24.104C22.2298 24.7867 22.7738 25.288 23.4138 25.608C24.0644 25.9173 24.7418 26.072 25.4458 26.072C26.1498 26.072 26.7898 25.912 27.3658 25.592C27.9524 25.2613 28.4004 24.824 28.7098 24.28C28.9764 23.8213 29.1204 23.3147 29.1418 22.76H25.9738ZM32.5948 16.328H33.7788V27H32.5948V16.328ZM42.2443 17.816L41.3003 18.44C41.1296 18.1093 40.9216 17.8427 40.6763 17.64C40.3563 17.3947 39.9563 17.272 39.4763 17.272C38.9429 17.272 38.5109 17.4267 38.1803 17.736C37.8496 18.0347 37.6843 18.4293 37.6843 18.92C37.6843 19.2827 37.8176 19.592 38.0843 19.848C38.2976 20.0613 38.6709 20.2853 39.2043 20.52L40.2283 20.968C40.9856 21.2987 41.5349 21.6347 41.8763 21.976C42.3883 22.488 42.6443 23.1333 42.6443 23.912C42.6443 24.8827 42.3243 25.672 41.6843 26.28C41.0443 26.888 40.2389 27.192 39.2682 27.192C38.3083 27.192 37.5349 26.904 36.9483 26.328C36.4683 25.8587 36.1376 25.2293 35.9563 24.44L37.1083 24.12C37.1829 24.6533 37.3963 25.1067 37.7483 25.48C38.1429 25.8747 38.6549 26.072 39.2843 26.072C39.9669 26.072 40.4949 25.8693 40.8683 25.464C41.2416 25.048 41.4283 24.5467 41.4283 23.96C41.4283 23.448 41.2523 23.032 40.9003 22.712C40.6976 22.52 40.2709 22.2747 39.6203 21.976L38.6603 21.528C38.0096 21.2293 37.5349 20.936 37.2363 20.648C36.7456 20.1787 36.5003 19.5973 36.5003 18.904C36.5003 18.0827 36.7776 17.4213 37.3323 16.92C37.8976 16.408 38.6176 16.152 39.4923 16.152C40.1536 16.152 40.7243 16.312 41.2043 16.632C41.6416 16.92 41.9883 17.3147 42.2443 17.816ZM55.0599 16.328V18.408H51.4599L51.1719 19.832C51.4705 19.7787 51.7639 19.752 52.0519 19.752C53.1932 19.752 54.0999 20.0987 54.7719 20.792C55.4225 21.4427 55.7479 22.3013 55.7479 23.368C55.7479 24.4773 55.3852 25.3947 54.6599 26.12C53.9025 26.8667 52.8252 27.24 51.4279 27.24C50.0625 27.24 48.8785 26.8507 47.8759 26.072L48.4359 23.784C48.7665 24.1573 49.1079 24.4507 49.4599 24.664C49.9399 24.9733 50.4785 25.128 51.0759 25.128C51.7265 25.128 52.2332 24.984 52.5959 24.696C53.0119 24.376 53.2199 23.928 53.2199 23.352C53.2199 22.84 53.0385 22.424 52.6759 22.104C52.2492 21.7307 51.6572 21.544 50.8999 21.544C50.1319 21.544 49.4065 21.7307 48.7239 22.104L49.8119 16.328H55.0599ZM57.1496 29.048L58.9096 24.536L61.0056 24.648L58.5896 29.112L57.1496 29.048ZM71.559 21.672C71.559 23.6347 71.047 25.1227 70.023 26.136C69.2657 26.872 68.311 27.24 67.159 27.24C66.0283 27.24 65.0843 26.872 64.327 26.136C63.303 25.1227 62.791 23.6347 62.791 21.672C62.791 19.6773 63.303 18.184 64.327 17.192C65.0843 16.456 66.0283 16.088 67.159 16.088C68.311 16.088 69.2657 16.456 70.023 17.192C71.047 18.184 71.559 19.6773 71.559 21.672ZM68.167 18.6C67.8897 18.3333 67.559 18.2 67.175 18.2C66.791 18.2 66.4603 18.3333 66.183 18.6C65.5857 19.1867 65.287 20.2053 65.287 21.656C65.287 23.1173 65.5857 24.1413 66.183 24.728C66.4603 24.9947 66.791 25.128 67.175 25.128C67.559 25.128 67.8897 24.9947 68.167 24.728C68.7643 24.1413 69.063 23.1173 69.063 21.656C69.063 20.2053 68.7643 19.1867 68.167 18.6Z" fill="white"/>
<path d="M100 14L102.057 18.1684L106.657 18.8369L103.329 22.0816L104.114 26.6631L100 24.5L95.8855 26.6631L96.6713 22.0816L93.3426 18.8369L97.9428 18.1684L100 14Z" fill="#FBF376"/>
<path d="M116 14L118.057 18.1684L122.657 18.8369L119.329 22.0816L120.114 26.6631L116 24.5L111.886 26.6631L112.671 22.0816L109.343 18.8369L113.943 18.1684L116 14Z" fill="#FBF376"/>
<path d="M132 14L134.057 18.1684L138.657 18.8369L135.329 22.0816L136.114 26.6631L132 24.5L127.886 26.6631L128.671 22.0816L125.343 18.8369L129.943 18.1684L132 14Z" fill="#FBF376"/>
<path d="M148 14L150.057 18.1684L154.657 18.8369L151.329 22.0816L152.114 26.6631L148 24.5L143.886 26.6631L144.671 22.0816L141.343 18.8369L145.943 18.1684L148 14Z" fill="#FBF376"/>
<path d="M164 14L166.057 18.1684L170.657 18.8369L167.329 22.0816L168.114 26.6631L164 24.5L159.886 26.6631L160.671 22.0816L157.343 18.8369L161.943 18.1684L164 14Z" fill="#CCCCCC"/>
<path fill-rule="evenodd" clip-rule="evenodd" d="M163.999 14L161.942 18.1684L157.342 18.8369L160.67 22.0816L159.885 26.6631L163.999 24.5V14Z" fill="#FBF376"/>
<path d="M166.056 18.1684L163.999 14V24.5L168.114 26.6631L167.328 22.0816L170.657 18.8369L166.056 18.1684Z" fill="#FBF376"/>
</svg>
