<svg width="42" height="32" viewBox="0 0 42 32" fill="none" xmlns="http://www.w3.org/2000/svg">
<path d="M7.61277 31.9298V29.8061C7.61277 28.9937 7.10836 28.4617 6.24247 28.4617C5.80952 28.4617 5.33875 28.6019 5.01509 29.0638C4.76289 28.6762 4.4014 28.4617 3.85916 28.4617C3.49767 28.4617 3.13618 28.5689 2.85036 28.9566V28.5318H2.09375V31.9298H2.85036V30.0535C2.85036 29.4514 3.17401 29.1669 3.67842 29.1669C4.18282 29.1669 4.43502 29.4844 4.43502 30.0535V31.9298H5.19163V30.0535C5.19163 29.4514 5.55312 29.1669 6.01969 29.1669C6.52409 29.1669 6.7763 29.4844 6.7763 30.0535V31.9298H7.61277ZM18.8357 28.5318H17.6084V27.505H16.8518V28.5318H16.1666V29.204H16.8518V30.7628C16.8518 31.5421 17.1754 31.9999 18.0413 31.9999C18.365 31.9999 18.7265 31.8927 18.9787 31.7524L18.7601 31.1133C18.5415 31.2535 18.2893 31.2906 18.1086 31.2906C17.7471 31.2906 17.6042 31.0762 17.6042 30.7256V29.204H18.8315V28.5318H18.8357ZM25.2585 28.4576C24.8255 28.4576 24.5355 28.672 24.3548 28.9524V28.5277H23.5982V31.9256H24.3548V30.0122C24.3548 29.4473 24.607 29.1256 25.0777 29.1256C25.2207 29.1256 25.4014 29.1628 25.5485 29.1957L25.7671 28.4865C25.6158 28.4576 25.4014 28.4576 25.2585 28.4576ZM15.5529 28.8122C15.1914 28.5648 14.687 28.4576 14.1448 28.4576C13.2789 28.4576 12.703 28.8823 12.703 29.5545C12.703 30.1195 13.136 30.4411 13.8926 30.5442L14.2541 30.5813C14.6492 30.6514 14.8678 30.7586 14.8678 30.936C14.8678 31.1834 14.5777 31.3607 14.0733 31.3607C13.5689 31.3607 13.1696 31.1834 12.9174 31.0061L12.5559 31.571C12.951 31.8555 13.4933 31.9957 14.0355 31.9957C15.0443 31.9957 15.6244 31.5339 15.6244 30.8988C15.6244 30.2968 15.1536 29.9793 14.4348 29.872L14.0733 29.8349C13.7497 29.7978 13.4975 29.7277 13.4975 29.5174C13.4975 29.27 13.7497 29.1298 14.149 29.1298C14.5819 29.1298 15.0149 29.3071 15.2335 29.4143L15.5529 28.8122ZM35.6828 28.4576C35.2499 28.4576 34.9598 28.672 34.7791 28.9524V28.5277H34.0225V31.9256H34.7791V30.0122C34.7791 29.4473 35.0313 29.1256 35.5021 29.1256C35.645 29.1256 35.8257 29.1628 35.9729 29.1957L36.1914 28.4947C36.0443 28.4576 35.8299 28.4576 35.6828 28.4576ZM26.0151 30.2308C26.0151 31.2576 26.7381 31.9999 27.8562 31.9999C28.3606 31.9999 28.7221 31.8927 29.0835 31.6122L28.7221 31.0102C28.432 31.2246 28.1462 31.3277 27.8183 31.3277C27.2046 31.3277 26.7717 30.903 26.7717 30.2308C26.7717 29.5916 27.2046 29.1669 27.8183 29.1339C28.142 29.1339 28.432 29.2411 28.7221 29.4514L29.0835 28.8494C28.7221 28.5648 28.3606 28.4617 27.8562 28.4617C26.7381 28.4576 26.0151 29.204 26.0151 30.2308ZM33.0137 30.2308V28.5318H32.2571V28.9566C32.0049 28.639 31.6434 28.4617 31.1726 28.4617C30.1974 28.4617 29.4408 29.204 29.4408 30.2308C29.4408 31.2576 30.1974 31.9999 31.1726 31.9999C31.677 31.9999 32.0385 31.8226 32.2571 31.505V31.9298H33.0137V30.2308ZM30.2353 30.2308C30.2353 29.6287 30.6304 29.1339 31.2819 29.1339C31.8956 29.1339 32.3285 29.5957 32.3285 30.2308C32.3285 30.8329 31.8956 31.3277 31.2819 31.3277C30.6346 31.2906 30.2353 30.8287 30.2353 30.2308ZM21.1812 28.4576C20.1724 28.4576 19.4494 29.1669 19.4494 30.2267C19.4494 31.2906 20.1724 31.9957 21.2191 31.9957C21.7235 31.9957 22.2279 31.8555 22.6272 31.5339L22.2657 31.0019C21.9757 31.2164 21.6142 31.3566 21.2569 31.3566C20.7861 31.3566 20.3195 31.1421 20.2102 30.5442H22.7701C22.7701 30.437 22.7701 30.3669 22.7701 30.2597C22.8037 29.1669 22.1522 28.4576 21.1812 28.4576ZM21.1812 29.0968C21.652 29.0968 21.9757 29.3813 22.0471 29.9091H20.2439C20.3153 29.4514 20.639 29.0968 21.1812 29.0968ZM39.9787 30.2308V27.1875H39.2221V28.9566C38.9699 28.639 38.6084 28.4617 38.1376 28.4617C37.1624 28.4617 36.4058 29.204 36.4058 30.2308C36.4058 31.2576 37.1624 31.9999 38.1376 31.9999C38.642 31.9999 39.0035 31.8226 39.2221 31.505V31.9298H39.9787V30.2308ZM37.2002 30.2308C37.2002 29.6287 37.5954 29.1339 38.2469 29.1339C38.8606 29.1339 39.2935 29.5957 39.2935 30.2308C39.2935 30.8329 38.8606 31.3277 38.2469 31.3277C37.5954 31.2906 37.2002 30.8287 37.2002 30.2308ZM11.8708 30.2308V28.5318H11.1142V28.9566C10.862 28.639 10.5005 28.4617 10.0297 28.4617C9.05452 28.4617 8.29791 29.204 8.29791 30.2308C8.29791 31.2576 9.05452 31.9999 10.0297 31.9999C10.5341 31.9999 10.8956 31.8226 11.1142 31.505V31.9298H11.8708V30.2308ZM9.05872 30.2308C9.05872 29.6287 9.45384 29.1339 10.1054 29.1339C10.7191 29.1339 11.152 29.5957 11.152 30.2308C11.152 30.8329 10.7191 31.3277 10.1054 31.3277C9.45384 31.2906 9.05872 30.8287 9.05872 30.2308Z" fill="white"/>
<path d="M26.6667 2.72559H15.3008V22.7586H26.6667V2.72559Z" fill="#ACDFF7"/>
<path d="M16.0568 12.7423C16.0568 8.67216 18.0072 5.05979 21 2.72577C18.7974 1.0268 16.019 0 12.9884 0C5.80905 0 0 5.69897 0 12.7423C0 19.7856 5.80905 25.4845 12.9884 25.4845C16.019 25.4845 18.7974 24.4577 21 22.7588C18.003 20.4577 16.0568 16.8124 16.0568 12.7423Z" fill="white"/>
<path d="M42 12.7423C42 19.7856 36.191 25.4845 29.0116 25.4845C25.981 25.4845 23.2026 24.4577 21 22.7588C24.0306 20.4206 25.9432 16.8124 25.9432 12.7423C25.9432 8.67216 23.9928 5.05979 21 2.72577C23.1984 1.0268 25.9768 0 29.0074 0C36.191 0 42 5.73608 42 12.7423Z" fill="white"/>
</svg>
