<svg width="70" height="24" viewBox="0 0 70 24" fill="none" xmlns="http://www.w3.org/2000/svg">
<g clip-path="url(#clip0_56_2297)">
<path d="M30.3326 23.1684H24.6621L28.2088 0.903809H33.879L30.3326 23.1684Z" fill="white"/>
<path d="M50.8888 1.44789C49.7704 0.9974 47.9964 0.5 45.8028 0.5C40.2031 0.5 36.2597 3.53162 36.2355 7.86592C36.189 11.0638 39.0588 12.8399 41.2052 13.9062C43.3991 14.9957 44.1448 15.7069 44.1448 16.6781C44.1225 18.1696 42.3721 18.8572 40.7395 18.8572C38.4756 18.8572 37.2625 18.5027 35.4191 17.6729L34.6724 17.3171L33.8789 22.3151C35.2089 22.9302 37.6591 23.4761 40.2031 23.5C46.1529 23.5 50.0265 20.5153 50.0724 15.8964C50.095 13.3619 48.5796 11.4198 45.3126 9.83285C43.3293 8.81413 42.1147 8.12721 42.1147 7.08488C42.138 6.1373 43.142 5.16674 45.3808 5.16674C47.2243 5.1192 48.5787 5.56907 49.6048 6.01925L50.1176 6.25567L50.8888 1.44789Z" fill="white"/>
<path d="M58.4255 15.2809C58.8925 14.0018 60.6894 9.0514 60.6894 9.0514C60.6659 9.09894 61.1555 7.74872 61.4355 6.91982L61.8318 8.83828C61.8318 8.83828 62.9056 14.1677 63.1388 15.2809C62.2526 15.2809 59.5455 15.2809 58.4255 15.2809ZM65.425 0.903809H61.0389C59.6863 0.903809 58.6587 1.30614 58.0751 2.75111L49.6523 23.1681H55.6022C55.6022 23.1681 56.5818 20.4201 56.7923 19.8283C57.445 19.8283 63.2331 19.8283 64.0728 19.8283C64.2356 20.61 64.7494 23.1681 64.7494 23.1681H69.9997L65.425 0.903809Z" fill="white"/>
<path d="M19.9257 0.903809L14.3724 16.0861L13.7656 13.007C12.7389 9.45404 9.51902 5.59385 5.92578 3.67445L11.0124 23.1448H17.0088L25.9218 0.903809H19.9257Z" fill="white"/>
<path d="M9.2166 0.903809H0.0933346L0 1.35367C7.11672 3.20129 11.83 7.6549 13.7664 13.0079L11.7832 2.77535C11.4566 1.35336 10.4532 0.950715 9.2166 0.903809Z" fill="white"/>
</g>
<defs>
<clipPath id="clip0_56_2297">
<rect width="70" height="23" fill="white" transform="translate(0 0.5)"/>
</clipPath>
</defs>
</svg>
