<svg width="70" height="20" viewBox="0 0 70 20" fill="none" xmlns="http://www.w3.org/2000/svg">
<g clip-path="url(#clip0_56_2291)">
<path fill-rule="evenodd" clip-rule="evenodd" d="M6.47312 0.503209C7.0985 0.499524 8.95706 0.334646 9.74432 2.95171C10.2746 4.7146 11.1194 7.60229 12.2785 11.6148H12.7506C13.9937 7.38453 14.8477 4.49684 15.3125 2.95171C16.108 0.307385 18.0966 0.503261 18.892 0.503261L25.0292 0.503269V19.3073H18.774V8.22579H18.3546L14.8677 19.3073H10.1615L6.67457 8.21758H6.25512V19.3073H0V0.503269L6.47312 0.503209ZM34.0114 0.503269V11.5931H34.5104L38.7519 2.47401C39.5753 0.659285 41.3301 0.503269 41.3301 0.503269H47.3832V19.3074H40.9974V8.21758H40.4984L36.3401 17.3366C35.5167 19.1432 33.6787 19.3074 33.6787 19.3074H27.6256V0.503269H34.0114ZM69.4552 9.43911C68.5645 11.9254 65.7672 13.7059 62.6702 13.7059H55.9735V19.3074H49.901V9.43911H69.4552Z" fill="white"/>
<path fill-rule="evenodd" clip-rule="evenodd" d="M62.9626 0.503418H49.582C49.9005 4.68985 53.5607 8.27371 57.3498 8.27371H69.8767C70.5996 4.79429 68.111 0.503418 62.9626 0.503418Z" fill="white"/>
</g>
<defs>
<clipPath id="clip0_56_2291">
<rect width="70" height="19" fill="white" transform="translate(0 0.5)"/>
</clipPath>
</defs>
</svg>
