<svg width="90" height="32" viewBox="0 0 90 32" fill="none" xmlns="http://www.w3.org/2000/svg">
<g clip-path="url(#clip0_56_2285)">
<path d="M10.1601 0.00012207C12.3136 0.00012207 12.9903 1.56207 13.558 3.12157C13.7965 3.78381 19.3928 19.2809 19.5611 19.746C19.6059 19.8758 19.5756 20.0888 19.3783 20.1659C19.1798 20.2418 16.2721 21.3851 16.1111 21.4463C15.9501 21.5087 15.7697 21.4182 15.7116 21.2554C15.6511 21.095 14.4442 17.7165 14.3086 17.3395H6.01396C5.88322 17.7165 4.66179 21.1023 4.60731 21.2554C4.55163 21.4108 4.37852 21.5161 4.20662 21.4463C4.03473 21.3778 1.11612 20.2345 0.9418 20.1659C0.774745 20.0998 0.698481 19.9076 0.756587 19.746C0.962379 19.1658 6.47397 3.91723 6.75481 3.12157C7.30198 1.58533 8.00167 0.00012207 10.1601 0.00012207ZM0.31353 27.7296C0.139212 27.7296 0 27.8765 0 28.0552V31.6773C0 31.856 0.139212 32.0005 0.31353 32.0005H19.9981C20.1761 32.0005 20.3153 31.856 20.3153 31.6773V28.0552C20.3153 27.8765 20.1761 27.7296 19.9981 27.7296H0.31353ZM10.1407 5.06054L7.33708 13.5741H12.9903L10.177 5.06054H10.1407ZM52.2106 19.0202C51.7978 19.1609 51.5254 19.1952 51.201 19.1952C50.5303 19.1952 50.1587 18.9271 50.1587 18.2318C50.1587 17.5072 50.6308 17.2648 51.5581 17.2648C51.7845 17.2648 52.0072 17.2978 52.1113 17.3346V17.8536C52.1113 18.413 52.1416 18.7802 52.2106 19.0202ZM54.5941 19.8501C54.099 19.0899 53.9695 18.6419 53.9695 17.6834V15.7371C53.9695 14.6893 53.8484 14.3111 53.5749 13.9291C53.1935 13.3881 52.558 13.1531 51.3898 13.1531C50.563 13.1531 49.7604 13.2436 48.9833 13.4444L49.2641 14.8276C49.7895 14.7529 50.3403 14.6893 50.7289 14.6893C51.9697 14.6893 52.1113 14.8705 52.1113 15.8118V16.1631C51.8353 16.0884 51.5254 16.0346 51.1659 16.0346C49.298 16.0346 48.3114 16.9588 48.3114 18.4889C48.3114 19.9235 49.3658 20.7057 50.6502 20.7057C51.1296 20.7057 51.6307 20.6164 52.0278 20.4523C52.2675 20.3471 52.3716 20.2846 52.6815 20.0814C52.8679 20.3556 53.242 20.636 53.3945 20.6886L54.5941 19.8501ZM73.0706 19.0202C72.6554 19.1609 72.3879 19.1952 72.061 19.1952C71.3879 19.1952 71.0115 18.9271 71.0115 18.2318C71.0115 17.5072 71.4896 17.2648 72.4193 17.2648C72.6457 17.2648 72.8696 17.2978 72.9713 17.3346V17.8536C72.9713 18.413 73.0004 18.7802 73.0706 19.0202ZM75.4566 19.8501C74.9578 19.0899 74.8307 18.6419 74.8307 17.6834V15.7371C74.8307 14.6893 74.7072 14.3111 74.4312 13.9291C74.0548 13.3881 73.418 13.1531 72.2462 13.1531C71.4206 13.1531 70.6132 13.2436 69.836 13.4444L70.1133 14.8276C70.6398 14.7529 71.1918 14.6893 71.5913 14.6893C72.8249 14.6893 72.9713 14.8705 72.9713 15.8118V16.1631C72.6953 16.0884 72.3879 16.0346 72.0211 16.0346C70.1508 16.0346 69.1606 16.9588 69.1606 18.4889C69.1606 19.9235 70.2174 20.7057 71.5078 20.7057C71.9932 20.7057 72.4895 20.6164 72.883 20.4523C73.1263 20.3471 73.2268 20.2846 73.5367 20.0814C73.7255 20.3556 74.0996 20.636 74.2533 20.6886L75.4566 19.8501ZM90 20.5429C90 20.5429 88.9759 18.3359 88.7253 17.834C88.4432 17.2685 88.1818 16.878 87.6056 16.7372V16.7054C87.9917 16.6307 88.2992 16.3945 88.6357 15.6722C88.9541 14.9684 89.0485 14.8166 89.2361 14.6489C89.4201 14.4824 89.6719 14.5424 89.6719 14.5424L89.7664 13.2412C89.4988 13.2045 89.2022 13.2032 88.896 13.2204C88.3876 13.251 88.1249 13.3991 87.8743 13.6537C87.6782 13.8483 87.545 14.1397 87.3804 14.4739C87.2061 14.8386 87.0681 15.1324 86.8865 15.5033C86.7061 15.884 86.6214 16.0554 86.1359 16.0554H85.82V10.2911H83.9497V20.5429H85.82V17.5953L86.0754 17.5904C86.6117 17.5904 86.7061 17.7263 86.9894 18.2979C87.3211 18.9798 87.9566 20.5429 87.9566 20.5429H90ZM37.3125 20.5429H39.4709L36.206 10.4625C35.8622 10.3462 35.4373 10.274 34.9834 10.274C34.4883 10.274 34.3115 10.3401 33.9242 10.4625L30.4693 20.5429H32.5405C32.5405 20.5429 32.8202 19.6591 33.1494 18.5636H36.7278C37.0474 19.6579 37.3125 20.5429 37.3125 20.5429ZM33.6748 16.8731C33.6748 16.8731 34.2728 14.8497 34.366 14.5351C34.6033 13.7198 34.964 12.4247 34.964 12.4247H35.0233C35.0233 12.4247 35.3574 13.7663 35.5753 14.5204C35.6577 14.8203 36.229 16.8731 36.229 16.8731H33.6748ZM57.7803 15.72C57.1205 15.72 56.5843 16.2647 56.5843 16.9318C56.5843 17.6039 57.1205 18.1449 57.7803 18.1449C58.4412 18.1449 58.9751 17.6039 58.9751 16.9318C58.9751 16.2647 58.4412 15.72 57.7803 15.72ZM42.0336 10.2911H40.1584V20.5417H42.0336V10.2911ZM79.2879 14.7823C80.3242 14.8044 80.4525 15.021 80.4525 15.8999V20.5429H82.3107V15.7371C82.3107 14.6893 82.1896 14.3111 81.9136 13.9291C81.5323 13.3881 80.7829 13.1531 79.5155 13.1531C78.2614 13.1531 77.4624 13.2877 76.4347 13.5974V20.5429H78.3122V14.8705C78.8049 14.7982 78.8921 14.7823 79.2879 14.7823ZM46.6712 10.1087C45.4993 10.1087 44.8614 10.3438 44.4861 10.8836C44.2101 11.2667 44.0879 11.6535 44.0879 12.7038V13.5974H43.157V15.13H44.0879V20.5429H45.9472L45.9424 15.13H47.7957V13.5974H45.9424L45.9472 12.776C45.9472 11.8359 46.0889 11.6535 47.3309 11.6535C47.4653 11.6535 47.6166 11.6609 47.7776 11.6731L48.0705 10.2005C47.6117 10.1393 47.142 10.1087 46.6712 10.1087ZM61.5898 10.2042C62.2278 10.1663 63.6538 10.1124 64.5484 10.1124C64.7118 10.1124 64.8813 10.1136 65.0508 10.1222C66.8097 10.1222 67.8181 11.4173 67.8181 12.9376C67.8181 13.972 67.3496 14.6587 66.2516 15.0675C67.5433 15.3564 68.22 16.3761 68.22 17.6235C68.22 18.5391 67.9645 19.2662 67.4961 19.762C66.8884 20.3667 65.9684 20.7057 64.7433 20.7057C63.6538 20.7057 62.2859 20.6715 61.5898 20.6298V10.2042ZM64.5484 11.8837C64.2385 11.8837 63.8548 11.8898 63.4746 11.9033V14.3649H64.5496C64.9757 14.3649 65.3183 14.2449 65.5519 14.0136C65.7747 13.7957 65.8909 13.4872 65.8909 13.1212C65.8909 12.3341 65.4696 11.8886 64.6864 11.8837H64.5484ZM64.5871 18.9381H64.6682C65.6451 18.9381 66.2431 18.413 66.2504 17.3554C66.2407 16.9759 66.0967 16.6258 65.8388 16.3724C65.5568 16.086 65.1573 15.9367 64.6888 15.9367H63.4746V18.9271C63.8172 18.9345 64.1949 18.9357 64.5871 18.9381Z" fill="white"/>
</g>
<defs>
<clipPath id="clip0_56_2285">
<rect width="90" height="32" fill="white"/>
</clipPath>
</defs>
</svg>
