<?xml version="1.0" encoding="UTF-8"?>
<!DOCTYPE svg PUBLIC "-//W3C//DTD SVG 1.1//EN" "http://www.w3.org/Graphics/SVG/1.1/DTD/svg11.dtd">
<!-- Creator: CorelDRAW 2018 (64-Bit) -->
<svg xmlns="http://www.w3.org/2000/svg" xml:space="preserve" width="1012px" height="1017px" version="1.1" style="shape-rendering:geometricPrecision; text-rendering:geometricPrecision; image-rendering:optimizeQuality; fill-rule:evenodd; clip-rule:evenodd"
viewBox="0 0 206.03 206.88"
 xmlns:xlink="http://www.w3.org/1999/xlink">
 <defs>
  <style type="text/css">
   <![CDATA[
    .fil1 {fill:#0095D9}
    .fil0 {fill:#FF8006}
   ]]>
  </style>
 </defs>
 <g id="Слой_x0020_1">
  <metadata id="CorelCorpID_0Corel-Layer"/>
  <path class="fil0" d="M113.1 161.2l38.89 28.47 25.84 -6.47 1.92 -19.56c-23.86,-9.93 -50.77,-9.95 -66.65,-2.44z"/>
  <path class="fil0" d="M26.28 96.66l14.53 11.19c26.94,-19.91 27.09,-42.67 29.28,-57.11l-27.37 10.31 -16.44 35.61z"/>
  <path class="fil0" d="M154.24 19.05c15.46,11.91 27.65,27.22 39.92,42l3.39 -29.68 -20.96 -21.45 -22.35 9.13z"/>
  <polygon class="fil0" points="23.95,95.42 39.48,61.94 34.17,63.98 21.01,93.17 "/>
  <polygon class="fil0" points="19.14,91.75 31.61,64.97 26.9,66.78 16.4,89.66 "/>
  <polygon class="fil0" points="178.63,9.09 197.81,28.21 198.31,23.66 182.29,7.63 "/>
  <polygon class="fil0" points="184.04,6.89 198.58,21.25 199.15,16.11 188.22,5.18 "/>
  <polygon class="fil0" points="11.06,85.59 14.43,88.16 23.74,67.83 18.74,69.93 "/>
  <polygon class="fil0" points="154.06,191.18 157.74,193.88 177.23,188.84 177.8,184.95 "/>
  <polygon class="fil0" points="159.88,195.37 164.04,198.48 176.66,195.15 177.2,190.77 "/>
  <polygon class="fil0" points="6.46,82.08 9.44,84.36 16.21,70.91 10.95,72.93 "/>
  <polygon class="fil0" points="190.78,4.23 199.51,12.86 200,8.53 194.31,2.7 "/>
  <polygon class="fil0" points="166,199.92 169.95,202.81 176.09,200.92 176.45,197.24 "/>
  <polygon class="fil0" points="0,77.16 4.62,80.84 7.9,74.11 "/>
  <polygon class="fil0" points="196.19,1.94 200.06,5.94 200.94,0 "/>
  <polygon class="fil0" points="172.15,204.44 175.51,206.88 175.84,203.53 "/>
  <path class="fil1" d="M119.69 37.73c7.35,1.47 12.06,4.8 18.67,10.05 17.87,14.18 36.8,40.04 43.42,57.86 4.3,11.56 2.46,17.87 -1.27,21.55 -5.42,5.37 -12.11,3.47 -21.04,0.39 -3.78,-1.31 -7.79,-3.17 -12.57,-4.23 -6.46,-1.44 -22.19,0.1 -31.75,4.92 -8.06,4.06 -16.24,7.49 -23.55,9.45 -13.06,3.5 -25.67,-0.33 -20.95,-15.06 2.01,-6.27 5.59,-11.88 8.92,-17.28 10.76,-17.42 23.96,-31.85 20.98,-56.51 -0.71,-5.88 6.22,-13.74 19.14,-11.14zm-40.55 38.86c-5.92,11.73 -6.27,13.04 -13.69,24.47l-7.3 11.36c-6.02,9.15 -19.15,29.59 -19.15,38.5 0,11.79 12.58,14.95 28.05,10.82 25.88,-6.93 51.37,-19.31 65.27,-21.26 31.42,-4.4 73.71,34.34 73.71,-8.21 0,-22.21 -25.17,-59.81 -39.6,-76.56 -8.83,-10.25 -16.32,-18.85 -26.73,-27.53 -12.58,-10.5 -31.79,-23.71 -47.51,-9.75 -12.16,10.78 -0.24,32.79 -13.05,58.16z"/>
  <path class="fil1" d="M107.68 113.61c-2,0 -4.37,0.79 -5.09,-2.54 -0.72,-3.33 2.25,-8.48 5.09,-12.72 3.23,-4.91 7.59,-10.85 8.75,-18.29 0.63,-4.04 -0.92,-9.43 2.33,-12.38 5.92,-5.35 17.64,1.7 32.14,23.06 5.64,9.82 9.92,22.86 -6.51,16.69 -15.91,-5.97 -31.27,6.18 -36.71,6.18zm-21.69 22.47c15.59,-0.97 42.33,-23.58 69.43,-11.9 20.9,9.01 28.89,1.13 26.02,-12.26 -4.1,-19.15 -40.04,-68.89 -61.67,-72.32 -11.34,-1.8 -17.78,4.16 -17.11,10.32 3.59,33.02 -24.25,55.31 -30.23,74.78 -1.52,4.96 1.36,12.14 13.56,11.38z"/>
 </g>
</svg>
